<svg width="32" height="32" viewBox="0 0 32 32" fill="none" xmlns="http://www.w3.org/2000/svg">
<path d="M16 2C18.4702 2 20.8965 2.65359 23.0324 3.89442C25.1684 5.13525 26.938 6.91915 28.1617 9.065C29.3853 11.2109 30.0194 13.6423 29.9995 16.1124C29.9797 18.5825 29.3067 21.0035 28.0487 23.1294C26.7908 25.2553 24.9927 27.0106 22.8371 28.2169C20.6815 29.4233 18.2451 30.0379 15.7752 29.9982C13.3053 29.9585 10.8899 29.2661 8.7741 27.9911C6.65834 26.7161 4.91759 24.9041 3.72856 22.7388L5.98743 21.4984C6.95759 23.265 8.37791 24.7436 10.1042 25.7838C11.8305 26.8241 13.8013 27.3891 15.8166 27.4215C17.8318 27.4538 19.8198 26.9524 21.5786 25.9681C23.3374 24.9838 24.8045 23.5516 25.8309 21.817C26.8572 20.0824 27.4064 18.1072 27.4226 16.0917C27.4388 14.0763 26.9214 12.0924 25.923 10.3416C24.9246 8.59071 23.4807 7.13519 21.7379 6.12276C19.9951 5.11034 18.0155 4.57706 16 4.57706L16 2Z" fill="#D80005"/>
<circle cx="15.999" cy="16" r="12.7032" transform="rotate(-15 15.999 16)" stroke="#D80005" stroke-width="2.5" stroke-dasharray="2 2"/>
<path d="M16 8V16.9375L12 21" stroke="#D80005" stroke-width="2"/>
</svg>
