<svg width="50" height="50" viewBox="0 0 50 50" fill="none" xmlns="http://www.w3.org/2000/svg">
<g clip-path="url(#clip0_245_861)">
<path d="M25 50C38.8075 50 50 38.8075 50 25C50 11.1925 38.8075 0 25 0C11.1925 0 0 11.1925 0 25C0 38.8075 11.1925 50 25 50Z" fill="#E7E7E7" stroke="black" stroke-linecap="round" stroke-linejoin="round"/>
<path d="M29.3396 34.1531V27.9821H20.6523V34.1531" fill="#EADDED"/>
<path d="M24.9961 29.7916C20.4462 29.7916 16.7461 26.0915 16.7461 21.5416V17.3396H18.1211V21.5416C18.1211 25.3325 21.2052 28.4166 24.9961 28.4166C28.787 28.4166 31.8711 25.3325 31.8711 21.5416V17.3396H33.2461V21.5416C33.2461 26.0901 29.546 29.7916 24.9961 29.7916Z" fill="black"/>
<path d="M19.9648 27.9821H21.3398V31.4018H19.9648V27.9821ZM28.652 27.9821H30.027V31.4018H28.652V27.9821ZM32.5625 19.0144C32.4596 19.0142 32.358 18.991 32.2653 18.9465C32.1725 18.902 32.0908 18.8374 32.0263 18.7573L29.6723 15.834C29.5745 15.7118 29.5212 15.5601 29.521 15.4036V14.3531H20.4708V15.4036C20.4706 15.5601 20.4172 15.7118 20.3195 15.834L17.9738 18.7573C17.894 18.8555 17.7887 18.9299 17.6695 18.9723C17.5503 19.0147 17.4218 19.0236 17.2979 18.9979C17.174 18.9722 17.0595 18.913 16.967 18.8266C16.8745 18.7403 16.8075 18.6302 16.7734 18.5084L15.4768 13.7701C15.3611 13.2549 15.3634 12.7201 15.4834 12.2058C15.6034 11.6916 15.838 11.211 16.1698 10.8001C16.6914 10.1529 17.4274 9.71346 18.2446 9.56126C18.3153 9.01702 18.4949 8.49261 18.7728 8.01938C19.0508 7.54615 19.4212 7.13382 19.8621 6.80703C20.303 6.48024 20.8053 6.2457 21.3389 6.11743C21.8725 5.98916 22.4265 5.9698 22.9678 6.06051L31.16 7.42588C31.705 7.51478 32.2266 7.71208 32.694 8.00612C33.1614 8.30016 33.5651 8.68496 33.8811 9.13776C34.1999 9.58843 34.4254 10.0983 34.5441 10.6374C34.6629 11.1765 34.6726 11.734 34.5728 12.2769L33.2349 18.4713C33.2014 18.6248 33.1165 18.7623 32.9942 18.8611C32.872 18.9598 32.7197 19.0139 32.5625 19.0144ZM22.294 7.38051C21.937 7.38033 21.5835 7.45052 21.2537 7.58709C20.9239 7.72365 20.6243 7.9239 20.3719 8.17638C20.1195 8.42886 19.9195 8.72861 19.7831 9.05849C19.6467 9.38838 19.5766 9.74191 19.577 10.0989C19.577 10.4784 19.269 10.8785 18.8895 10.8785C18.5728 10.878 18.2601 10.9485 17.9743 11.0849C17.6885 11.2212 17.437 11.4199 17.2381 11.6664C17.0382 11.912 16.8961 12.1995 16.8223 12.5075C16.7486 12.8154 16.745 13.1361 16.8119 13.4456L17.7441 16.846L19.0958 15.1616V13.6656C19.0958 13.4833 19.1682 13.3084 19.2971 13.1795C19.426 13.0506 19.6009 12.9781 19.7833 12.9781H30.2085C30.3908 12.9781 30.5657 13.0506 30.6946 13.1795C30.8236 13.3084 30.896 13.4833 30.896 13.6656V15.1603L32.194 16.7731L33.2239 12.0088C33.2881 11.6483 33.2798 11.2787 33.1995 10.9215C33.1192 10.5643 32.9686 10.2267 32.7564 9.92838C32.5448 9.62523 32.2746 9.36763 31.9616 9.17089C31.6487 8.97414 31.2994 8.84224 30.9345 8.78301L22.7422 7.41763C22.5941 7.39304 22.4442 7.38062 22.294 7.38051ZM9.1875 49.9945C9.00516 49.9945 8.8303 49.9221 8.70136 49.7931C8.57243 49.6642 8.5 49.4893 8.5 49.307V41.7129C8.5 39.7288 9.55738 37.8629 11.2582 36.8426L17.1556 33.3034C17.3117 33.2134 17.4969 33.1882 17.6713 33.2334C17.8458 33.2786 17.9955 33.3904 18.0883 33.5448C18.1811 33.6993 18.2096 33.884 18.1676 34.0592C18.1256 34.2344 18.0165 34.3862 17.8638 34.4818L11.9664 38.021C11.3302 38.4051 10.8036 38.9465 10.4373 39.5931C10.071 40.2397 9.87735 40.9697 9.875 41.7129V49.307C9.875 49.4893 9.80257 49.6642 9.67364 49.7931C9.5447 49.9221 9.36984 49.9945 9.1875 49.9945ZM40.8125 49.9945C40.6302 49.9945 40.4553 49.9221 40.3264 49.7931C40.1974 49.6642 40.125 49.4893 40.125 49.307V41.7129C40.1228 40.9697 39.9292 40.2396 39.5629 39.593C39.1966 38.9464 38.6699 38.405 38.0336 38.021L32.1349 34.4818C32.0558 34.4361 31.9865 34.3752 31.9312 34.3025C31.8759 34.2299 31.8356 34.1469 31.8127 34.0585C31.7899 33.9701 31.7848 33.878 31.7979 33.7876C31.811 33.6972 31.842 33.6103 31.889 33.5321C31.9361 33.4538 31.9982 33.3856 32.0719 33.3317C32.1455 33.2777 32.2292 33.2389 32.318 33.2176C32.4069 33.1963 32.499 33.1929 32.5892 33.2077C32.6793 33.2224 32.7656 33.2549 32.843 33.3034L38.7417 36.8426C39.5811 37.3492 40.2757 38.0634 40.7588 38.9164C41.2419 39.7695 41.4972 40.7326 41.5 41.7129V49.307C41.5 49.4893 41.4276 49.6642 41.2986 49.7931C41.1697 49.9221 40.9948 49.9945 40.8125 49.9945Z" fill="black"/>
<path d="M16.0629 49.9945C15.8805 49.9945 15.7057 49.9221 15.5767 49.7931C15.4478 49.6642 15.3754 49.4893 15.3754 49.307V46.0867C15.3754 45.0101 14.9752 43.9789 14.2492 43.1827L13.2084 42.0429C13.0853 41.9081 13.0208 41.73 13.029 41.5477C13.0373 41.3654 13.1176 41.1938 13.2524 41.0707C13.3871 40.9477 13.5652 40.8832 13.7475 40.8914C13.9298 40.8997 14.1014 40.98 14.2245 41.1147L15.2654 42.2546C16.2214 43.3018 16.7512 44.6688 16.7504 46.0867V49.307C16.7504 49.4893 16.6779 49.6642 16.549 49.7931C16.4201 49.9221 16.2452 49.9945 16.0629 49.9945ZM33.9379 49.9945C33.7555 49.9945 33.5807 49.9221 33.4517 49.7931C33.3228 49.6642 33.2504 49.4893 33.2504 49.307V46.0867C33.2489 44.6688 33.7793 43.3019 34.7367 42.256L35.7776 41.1147C35.9007 40.98 36.0723 40.8997 36.2546 40.8914C36.4369 40.8832 36.615 40.9477 36.7497 41.0707C36.8845 41.1938 36.9648 41.3654 36.9731 41.5477C36.9813 41.73 36.9168 41.9081 36.7937 42.0429L35.7529 43.1827C35.0269 43.9756 34.6246 45.0118 34.6254 46.0867V49.307C34.6254 49.4893 34.5529 49.6642 34.424 49.7931C34.2951 49.9221 34.1202 49.9945 33.9379 49.9945ZM20.8396 38.7415L20.8011 38.7401C20.7045 38.7346 20.6102 38.7089 20.5242 38.6646C20.4382 38.6203 20.3625 38.5584 20.302 38.483L16.9731 34.3222C16.8713 34.1949 16.818 34.0356 16.8228 33.8726C16.8276 33.7097 16.8901 33.5537 16.9992 33.4326L19.246 30.9356C19.3449 30.8254 19.4769 30.7502 19.6221 30.7212C19.7673 30.6922 19.9181 30.711 20.0517 30.7747L25.2946 33.2717C25.3936 33.3195 25.4797 33.3901 25.5458 33.4778C25.612 33.5655 25.6562 33.6677 25.6749 33.776C25.6936 33.8843 25.6862 33.9954 25.6533 34.1002C25.6204 34.205 25.5629 34.3005 25.4857 34.3786L21.325 38.5394C21.2615 38.6035 21.1859 38.6544 21.1026 38.6891C21.0192 38.7238 20.9299 38.7416 20.8396 38.7415ZM18.4114 33.9194L20.896 37.0255L23.8261 34.0954L19.9252 32.2377L18.4114 33.9194Z" fill="black"/>
<path d="M29.1612 38.7415C28.9788 38.7417 28.8037 38.6695 28.6745 38.5408L24.5137 34.38C24.4353 34.3024 24.3768 34.2071 24.3432 34.102C24.3095 33.997 24.3018 33.8854 24.3205 33.7767C24.3393 33.668 24.384 33.5655 24.451 33.4778C24.5179 33.3901 24.605 33.3199 24.7048 33.2731L29.9477 30.7761C30.0814 30.7124 30.2321 30.6936 30.3773 30.7226C30.5226 30.7516 30.6545 30.8268 30.7535 30.937L33.0002 33.434C33.1093 33.5551 33.1719 33.7111 33.1767 33.874C33.1814 34.037 33.1282 34.1963 33.0263 34.3236L29.6975 38.4844C29.6369 38.5598 29.5612 38.6217 29.4752 38.666C29.3892 38.7103 29.2949 38.736 29.1983 38.7415H29.1612ZM26.1747 34.0954L29.1048 37.0255L31.5895 33.9194L30.0756 32.2378L26.1747 34.0954Z" fill="black"/>
</g>
<defs>
<clipPath id="clip0_245_861">
<rect width="50" height="50" rx="25" fill="white"/>
</clipPath>
</defs>
</svg>
