<svg width="32" height="32" viewBox="0 0 32 32" fill="none" xmlns="http://www.w3.org/2000/svg">
<path d="M26 12.5C26 9.84784 24.9464 7.3043 23.0711 5.42893C21.1957 3.55357 18.6522 2.5 16 2.5C13.3804 2.49953 10.8653 3.52697 8.99527 5.36144C7.12527 7.19591 6.04977 9.6909 6 12.31C5.20435 12.31 4.44129 12.6261 3.87868 13.1887C3.31607 13.7513 3 14.5144 3 15.31V19.31C3 20.1056 3.31607 20.8687 3.87868 21.4313C4.44129 21.9939 5.20435 22.31 6 22.31H8C8.79565 22.31 9.55871 21.9939 10.1213 21.4313C10.6839 20.8687 11 20.1056 11 19.31V15.31C11 14.5144 10.6839 13.7513 10.1213 13.1887C9.55871 12.6261 8.79565 12.31 8 12.31C8.04962 10.2214 8.91433 8.23502 10.4093 6.77558C11.9042 5.31613 13.9108 4.49941 16 4.5C18.1217 4.5 20.1566 5.34285 21.6569 6.84315C23.1571 8.34344 24 10.3783 24 12.5C23.2044 12.5 22.4413 12.8161 21.8787 13.3787C21.3161 13.9413 21 14.7044 21 15.5V19.5C21.0027 20.1612 21.2237 20.8031 21.6288 21.3257C22.0339 21.8483 22.6003 22.2225 23.24 22.39C22.484 23.7634 21.2206 24.7863 19.72 25.24C19.4797 24.7208 19.096 24.2811 18.6141 23.9728C18.1321 23.6646 17.5721 23.5005 17 23.5H15C14.2044 23.5 13.4413 23.8161 12.8787 24.3787C12.3161 24.9413 12 25.7044 12 26.5C12 27.2956 12.3161 28.0587 12.8787 28.6213C13.4413 29.1839 14.2044 29.5 15 29.5H17C17.6626 29.4967 18.3054 29.2742 18.8282 28.8672C19.351 28.4602 19.7244 27.8915 19.89 27.25C21.1185 26.9501 22.2584 26.3632 23.2162 25.5375C24.1739 24.7119 24.9224 23.6709 25.4 22.5H26C26.7956 22.5 27.5587 22.1839 28.1213 21.6213C28.6839 21.0587 29 20.2956 29 19.5V15.5C29 14.7044 28.6839 13.9413 28.1213 13.3787C27.5587 12.8161 26.7956 12.5 26 12.5ZM9 15.31V19.31C9 19.5752 8.89464 19.8296 8.70711 20.0171C8.51957 20.2046 8.26522 20.31 8 20.31H6C5.73478 20.31 5.48043 20.2046 5.29289 20.0171C5.10536 19.8296 5 19.5752 5 19.31V15.31C5 15.0448 5.10536 14.7904 5.29289 14.6029C5.48043 14.4154 5.73478 14.31 6 14.31H8C8.26522 14.31 8.51957 14.4154 8.70711 14.6029C8.89464 14.7904 9 15.0448 9 15.31ZM17 27.5H15C14.7348 27.5 14.4804 27.3946 14.2929 27.2071C14.1054 27.0196 14 26.7652 14 26.5C14 26.2348 14.1054 25.9804 14.2929 25.7929C14.4804 25.6054 14.7348 25.5 15 25.5H17C17.2652 25.5 17.5196 25.6054 17.7071 25.7929C17.8946 25.9804 18 26.2348 18 26.5C18 26.7652 17.8946 27.0196 17.7071 27.2071C17.5196 27.3946 17.2652 27.5 17 27.5ZM27 19.5C27 19.7652 26.8946 20.0196 26.7071 20.2071C26.5196 20.3946 26.2652 20.5 26 20.5H24C23.7348 20.5 23.4804 20.3946 23.2929 20.2071C23.1054 20.0196 23 19.7652 23 19.5V15.5C23 15.2348 23.1054 14.9804 23.2929 14.7929C23.4804 14.6054 23.7348 14.5 24 14.5H26C26.2652 14.5 26.5196 14.6054 26.7071 14.7929C26.8946 14.9804 27 15.2348 27 15.5V19.5Z" fill="#033EB2"/>
</svg>
