<svg width="30" height="30" viewBox="0 0 30 30" fill="none" xmlns="http://www.w3.org/2000/svg">
<circle cx="15" cy="15" r="15" fill="#D80005"/>
<path fill-rule="evenodd" clip-rule="evenodd" d="M13.3092 8.70362C13.379 8.61987 13.4824 8.57144 13.5914 8.57144H17.2649C17.3739 8.57144 17.4773 8.61987 17.5471 8.70362L19.2737 10.7755H21.3057C21.7928 10.7755 22.26 10.969 22.6045 11.3135C22.9489 11.6579 23.1424 12.1251 23.1424 12.6123V19.2245C23.1424 19.7116 22.9489 20.1788 22.6045 20.5233C22.26 20.8677 21.7928 21.0612 21.3057 21.0612H9.5506C9.06347 21.0612 8.59629 20.8677 8.25183 20.5233C7.90738 20.1788 7.71387 19.7116 7.71387 19.2245V12.6123C7.71387 12.1251 7.90738 11.6579 8.25183 11.3135C8.59629 10.969 9.06347 10.7755 9.5506 10.7755H11.5826L13.3092 8.70362ZM13.7635 9.30614L12.0369 11.378C11.9671 11.4618 11.8637 11.5102 11.7547 11.5102H9.5506C9.25832 11.5102 8.97801 11.6263 8.77134 11.833C8.56467 12.0397 8.44856 12.32 8.44856 12.6123V19.2245C8.44856 19.5168 8.56467 19.7971 8.77134 20.0038C8.97801 20.2104 9.25832 20.3265 9.5506 20.3265H21.3057C21.598 20.3265 21.8783 20.2104 22.085 20.0038C22.2916 19.7971 22.4077 19.5168 22.4077 19.2245V12.6123C22.4077 12.32 22.2916 12.0397 22.085 11.833C21.8783 11.6263 21.598 11.5102 21.3057 11.5102H19.1016C18.9926 11.5102 18.8892 11.4618 18.8194 11.378L17.0928 9.30614H13.7635Z" fill="white"/>
<path fill-rule="evenodd" clip-rule="evenodd" d="M15.4289 13.5918C14.4144 13.5918 13.5921 14.4142 13.5921 15.4286C13.5921 16.443 14.4144 17.2653 15.4289 17.2653C16.4433 17.2653 17.2656 16.443 17.2656 15.4286C17.2656 14.4142 16.4433 13.5918 15.4289 13.5918ZM12.8574 15.4286C12.8574 14.0084 14.0087 12.8571 15.4289 12.8571C16.849 12.8571 18.0003 14.0084 18.0003 15.4286C18.0003 16.8487 16.849 18 15.4289 18C14.0087 18 12.8574 16.8487 12.8574 15.4286Z" fill="white"/>
</svg>
