<svg width="18" height="18" viewBox="0 0 18 18" fill="none" xmlns="http://www.w3.org/2000/svg">
<path fill-rule="evenodd" clip-rule="evenodd" d="M7.30921 2.70362C7.37901 2.61987 7.4824 2.57144 7.59142 2.57144H11.2649C11.3739 2.57144 11.4773 2.61987 11.5471 2.70362L13.2737 4.77552H15.3057C15.7928 4.77552 16.26 4.96904 16.6045 5.31349C16.9489 5.65794 17.1424 6.12513 17.1424 6.61226V13.2245C17.1424 13.7116 16.9489 14.1788 16.6045 14.5233C16.26 14.8677 15.7928 15.0612 15.3057 15.0612H3.5506C3.06347 15.0612 2.59629 14.8677 2.25183 14.5233C1.90738 14.1788 1.71387 13.7116 1.71387 13.2245V6.61226C1.71387 6.12513 1.90738 5.65794 2.25183 5.31349C2.59629 4.96904 3.06347 4.77552 3.5506 4.77552H5.58263L7.30921 2.70362ZM7.76347 3.30614L6.03689 5.37804C5.96709 5.46179 5.8637 5.51022 5.75468 5.51022H3.5506C3.25832 5.51022 2.97801 5.62632 2.77134 5.833C2.56467 6.03967 2.44856 6.31998 2.44856 6.61226V13.2245C2.44856 13.5168 2.56467 13.7971 2.77134 14.0038C2.97801 14.2104 3.25832 14.3265 3.5506 14.3265H15.3057C15.598 14.3265 15.8783 14.2104 16.085 14.0038C16.2916 13.7971 16.4077 13.5168 16.4077 13.2245V6.61226C16.4077 6.31998 16.2916 6.03967 16.085 5.833C15.8783 5.62632 15.598 5.51022 15.3057 5.51022H13.1016C12.9926 5.51022 12.8892 5.46179 12.8194 5.37804L11.0928 3.30614H7.76347Z" fill="white"/>
<path fill-rule="evenodd" clip-rule="evenodd" d="M9.42885 7.59184C8.41445 7.59184 7.59212 8.41417 7.59212 9.42858C7.59212 10.443 8.41445 11.2653 9.42885 11.2653C10.4433 11.2653 11.2656 10.443 11.2656 9.42858C11.2656 8.41417 10.4433 7.59184 9.42885 7.59184ZM6.85742 9.42858C6.85742 8.00841 8.00869 6.85715 9.42885 6.85715C10.849 6.85715 12.0003 8.00841 12.0003 9.42858C12.0003 10.8487 10.849 12 9.42885 12C8.00869 12 6.85742 10.8487 6.85742 9.42858Z" fill="white"/>
</svg>
