<svg width="21" height="21" viewBox="0 0 21 21" fill="none" xmlns="http://www.w3.org/2000/svg">
<path d="M8.11057 19.6674C8.60149 19.6674 8.99946 19.2695 8.99946 18.7785C8.99946 18.2876 8.60149 17.8896 8.11057 17.8896C7.61965 17.8896 7.22168 18.2876 7.22168 18.7785C7.22168 19.2695 7.61965 19.6674 8.11057 19.6674Z" stroke="black" stroke-width="0.8" stroke-linecap="round" stroke-linejoin="round"/>
<path d="M17.8889 19.6674C18.3798 19.6674 18.7778 19.2695 18.7778 18.7785C18.7778 18.2876 18.3798 17.8896 17.8889 17.8896C17.398 17.8896 17 18.2876 17 18.7785C17 19.2695 17.398 19.6674 17.8889 19.6674Z" stroke="black" stroke-width="0.8" stroke-linecap="round" stroke-linejoin="round"/>
<path d="M1 1H4.55556L6.93778 12.9022C7.01906 13.3115 7.2417 13.6791 7.56671 13.9407C7.89172 14.2023 8.2984 14.3413 8.71556 14.3333H17.3556C17.7727 14.3413 18.1794 14.2023 18.5044 13.9407C18.8294 13.6791 19.052 13.3115 19.1333 12.9022L20.5556 5.44444H5.44444" stroke="black" stroke-width="0.8" stroke-linecap="round" stroke-linejoin="round"/>
<g clip-path="url(#clip0_2983_529)">
<path d="M15.1647 9.83176H13.5016V8.16868C13.5016 8.13656 13.4764 8.11133 13.4443 8.11133C13.4122 8.11133 13.3869 8.13656 13.3869 8.16868V9.83176H11.7239C11.6917 9.83176 11.6665 9.85699 11.6665 9.88911C11.6665 9.92122 11.6917 9.94645 11.7239 9.94645H13.3869V11.6095C13.3869 11.6417 13.4122 11.6669 13.4443 11.6669C13.4764 11.6669 13.5016 11.6417 13.5016 11.6095V9.94645H15.1647C15.1968 9.94645 15.2221 9.92122 15.2221 9.88911C15.2221 9.85699 15.1968 9.83176 15.1647 9.83176Z" fill="black" stroke="black" stroke-width="0.2"/>
</g>
<defs>
<clipPath id="clip0_2983_529">
<rect width="3.55556" height="3.55556" fill="white" transform="translate(11.6665 8.11133)"/>
</clipPath>
</defs>
</svg>
