<svg width="40" height="40" viewBox="0 0 40 40" fill="none" xmlns="http://www.w3.org/2000/svg">
<path d="M8.30482 21.0617C9.36013 20.7028 11.0631 19.2006 11.8206 18.4994C12.0345 18.5316 12.2499 18.5522 12.466 18.561C12.9862 18.0744 13.6711 17.8036 14.3827 17.8031C14.4396 17.7047 14.4829 17.5989 14.5115 17.4888C14.5353 17.3936 14.5444 17.2953 14.5382 17.1974C14.8597 16.8322 15.0693 16.3818 15.142 15.9002C15.2147 15.4187 15.1473 14.9263 14.948 14.4821C14.7486 14.038 14.4258 13.6608 14.0181 13.3958C13.6104 13.1308 13.1351 12.9892 12.6492 12.988C12.3165 12.9881 11.9871 13.0546 11.6803 13.1836C11.3735 13.3126 11.0954 13.5016 10.8622 13.7394C10.8147 13.7325 10.7667 13.7288 10.7186 13.7285C10.5044 13.7295 10.2973 13.8055 10.1332 13.9435C9.33583 14.6115 9.41067 15.5929 9.6673 16.2994C9.09222 17.1152 7.87247 18.32 6.90646 19.1867C6.79243 19.2864 6.70236 19.4107 6.64299 19.5503C6.58362 19.6898 6.55649 19.841 6.56361 19.9925C6.57707 20.162 6.6294 20.3261 6.71652 20.472C6.80365 20.6179 6.92321 20.7416 7.06589 20.8335C7.24011 20.9662 7.44301 21.056 7.65822 21.0957C7.87343 21.1353 8.09492 21.1237 8.30482 21.0617ZM11.9477 13.9852C12.1482 13.8922 12.3651 13.8398 12.5859 13.8311C12.8067 13.8225 13.027 13.8577 13.2342 13.9348C13.4413 14.0119 13.6312 14.1293 13.7929 14.2803C13.9545 14.4313 14.0848 14.6129 14.1761 14.8145C14.2927 15.0703 14.3439 15.3511 14.325 15.6316C14.3062 15.9122 14.2179 16.1836 14.0681 16.4213C13.8569 16.2891 13.6134 16.2176 13.3644 16.2146C13.3676 15.8834 13.2541 15.5617 13.0438 15.3061C13.036 15.2973 13.0283 15.2887 13.0203 15.28C12.8955 15.1439 12.7438 15.0352 12.5749 14.9609C12.406 14.8865 12.2235 14.8481 12.039 14.848C11.9645 14.8482 11.89 14.8542 11.8164 14.8661C11.7495 14.6504 11.6604 14.4422 11.5507 14.2448C11.67 14.1397 11.8037 14.0523 11.9477 13.9852ZM7.46667 19.8141C8.06911 19.2734 10.0298 17.4668 10.6183 16.3615C10.6183 16.3615 9.94257 15.2003 10.6716 14.5897C10.6845 14.5778 10.7011 14.5709 10.7186 14.5704C10.9518 14.5704 11.1701 15.9554 11.4231 15.9554C11.4287 15.9554 11.4342 15.9548 11.4397 15.9533C11.6066 15.8042 11.8165 15.7119 12.039 15.6899C12.1086 15.6895 12.1773 15.7041 12.2408 15.7326C12.3042 15.7611 12.3608 15.8028 12.4068 15.8551C12.4068 15.8551 12.8025 16.3165 12.1444 16.7927C12.4895 16.9794 12.8778 17.0709 13.2698 17.0578C13.2957 17.0578 13.3219 17.0574 13.3484 17.0568L13.3583 17.0566C13.5128 17.0566 13.7322 17.145 13.6975 17.2815C13.6474 17.4792 13.4054 17.7281 12.6647 17.7281C12.2906 17.7211 11.9182 17.6772 11.5528 17.5969C11.5528 17.5969 9.1721 19.8779 8.03692 20.2638C7.95267 20.2833 7.86505 20.2829 7.78098 20.2627C7.69691 20.2424 7.61868 20.2028 7.55248 20.1471C7.43447 20.0632 7.3302 19.9366 7.46667 19.8141Z" fill="url(#paint0_linear_3035_294)"/>
<path d="M32.623 21.0365C31.9671 20.6515 31.232 20.4219 30.474 20.3653C30.9687 19.7809 31.3264 19.0928 31.5208 18.3516C31.5532 18.212 31.5496 18.0665 31.5103 17.9288C31.471 17.791 31.3972 17.6656 31.296 17.5644C31.1939 17.4646 31.0686 17.3919 30.9313 17.3529C30.7941 17.3139 30.6493 17.3098 30.5101 17.341C29.7743 17.5372 29.0919 17.8967 28.5134 18.3929C28.4675 17.6056 28.2446 16.839 27.8614 16.1502C27.787 16.0248 27.6814 15.9209 27.5548 15.8487C27.4283 15.7765 27.2852 15.7385 27.1396 15.7385C26.994 15.7385 26.8509 15.7764 26.7243 15.8486C26.5977 15.9207 26.4921 16.0246 26.4176 16.15C26.0344 16.8389 25.8114 17.6057 25.7655 18.3931C25.1872 17.8967 24.505 17.537 23.7693 17.3406C23.6301 17.3076 23.4849 17.3108 23.3474 17.3498C23.2098 17.3888 23.0845 17.4624 22.9832 17.5636C22.882 17.6648 22.8082 17.7902 22.7688 17.9279C22.7294 18.0657 22.7258 18.2112 22.7583 18.3507C22.9516 19.0894 23.3071 19.7754 23.7988 20.3587C23.043 20.4213 22.3108 20.653 21.656 21.0365C21.535 21.1121 21.4351 21.2173 21.3659 21.3423C21.2966 21.4672 21.2603 21.6078 21.2603 21.7507C21.2602 21.8937 21.2965 22.0343 21.3656 22.1592C21.4348 22.2842 21.5346 22.3895 21.6556 22.4652C22.3103 22.8494 23.0426 23.0815 23.7987 23.1442C23.3071 23.7271 22.9516 24.4127 22.7582 25.151C22.7256 25.2905 22.7292 25.436 22.7685 25.5738C22.8078 25.7115 22.8816 25.8369 22.9828 25.9381C23.084 26.0393 23.2093 26.1129 23.3468 26.152C23.4843 26.191 23.6295 26.1943 23.7687 26.1613C24.51 25.964 25.1971 25.6007 25.7781 25.0988C25.8453 25.8253 26.0629 26.5299 26.417 27.1674C26.4914 27.2928 26.5971 27.3966 26.7237 27.4688C26.8502 27.5409 26.9933 27.5788 27.1389 27.5788C27.2844 27.5788 27.4275 27.5409 27.5541 27.4688C27.6806 27.3966 27.7863 27.2928 27.8607 27.1674C28.2151 26.5298 28.4331 25.8251 28.5007 25.0983C29.0816 25.6006 29.7687 25.9641 30.5102 26.1613C30.6493 26.1942 30.7945 26.191 30.932 26.1519C31.0695 26.1129 31.1948 26.0392 31.296 25.9381C31.3972 25.8369 31.471 25.7115 31.5103 25.5737C31.5496 25.436 31.5532 25.2905 31.5207 25.151C31.3263 24.4098 30.969 23.7216 30.4748 23.1368C31.2328 23.08 31.9678 22.8502 32.6237 22.4652C32.7446 22.3895 32.8443 22.2841 32.9134 22.1592C32.9825 22.0342 33.0188 21.8936 33.0187 21.7507C33.0186 21.6078 32.9823 21.4672 32.9131 21.3423C32.8438 21.2174 32.744 21.1121 32.623 21.0365ZM26.2995 21.6591C26.3003 21.4928 26.3503 21.3304 26.4431 21.1925C26.5358 21.0546 26.6673 20.9474 26.8208 20.8843C26.9744 20.8212 27.1431 20.8051 27.3057 20.8381C27.4684 20.871 27.6177 20.9515 27.7347 21.0694C27.8518 21.1872 27.9314 21.3372 27.9635 21.5004C27.9955 21.6636 27.9787 21.8326 27.915 21.9862C27.8513 22.1398 27.7437 22.2711 27.6057 22.3634C27.4677 22.4557 27.3055 22.505 27.1395 22.505C26.9162 22.5045 26.7023 22.4151 26.5447 22.2564C26.3872 22.0978 26.299 21.8829 26.2995 21.6591ZM30.7029 18.1604C30.5171 18.8483 30.1632 19.479 29.6732 19.9954C29.3498 20.3143 28.9742 20.5751 28.5627 20.7665C28.4486 20.5832 28.3007 20.4235 28.1268 20.2958C28.315 19.8901 28.5701 19.519 28.8812 19.1981C29.3924 18.705 30.0187 18.3483 30.7029 18.1604ZM27.1395 16.5806C27.4801 17.2042 27.6653 17.9011 27.6794 18.612C27.6772 18.9371 27.635 19.2607 27.5537 19.5755C27.4723 19.7175 27.4026 19.8552 27.3428 19.9843C27.2078 19.9662 27.071 19.9662 26.9359 19.9843C26.8762 19.8552 26.8067 19.7179 26.7253 19.5759C26.6439 19.261 26.6017 18.9372 26.5995 18.612C26.6136 17.9011 26.7989 17.2042 27.1395 16.5806ZM25.3973 19.1981C25.7086 19.519 25.9638 19.89 26.1522 20.2958C26.0126 20.3984 25.8895 20.5218 25.7872 20.6617C25.5982 20.5913 25.4053 20.532 25.2095 20.4841C24.9916 20.3431 24.7892 20.1794 24.6056 19.9958C24.1156 19.479 23.7618 18.848 23.5761 18.1598C24.2602 18.348 24.8863 18.705 25.3973 19.1981ZM24.1161 21.1874C24.5805 21.1931 25.0403 21.2804 25.4746 21.4453C25.4527 21.6015 25.455 21.7601 25.4813 21.9156C25.2764 22.0074 25.0775 22.1122 24.8858 22.2292C24.633 22.2853 24.375 22.3142 24.1161 22.3155C23.4076 22.2996 22.7144 22.1056 22.1001 21.7512C22.7145 21.3971 23.4077 21.2033 24.1161 21.1874ZM23.576 25.3421C23.7618 24.6541 24.1156 24.0233 24.6056 23.5068C24.9551 23.1633 25.3644 22.8869 25.8132 22.6912C25.8924 22.7942 25.9831 22.8878 26.0836 22.9699C25.9935 23.2129 25.921 23.4621 25.8667 23.7156C25.7307 23.9273 25.5735 24.1246 25.3975 24.3042C24.8866 24.7975 24.2603 25.1544 23.576 25.3421ZM27.1389 26.737C26.7985 26.1134 26.6134 25.4165 26.5995 24.7058C26.6048 24.2331 26.6901 23.7646 26.8519 23.3206C26.9469 23.3375 27.0431 23.3463 27.1395 23.3469C27.1816 23.3469 27.2229 23.3436 27.2643 23.3407C27.3643 23.5786 27.4816 23.8088 27.6151 24.0296C27.6566 24.2525 27.6781 24.4787 27.6794 24.7054C27.6651 25.4163 27.4797 26.1133 27.1389 26.737ZM28.8818 24.3038C28.5352 23.9457 28.2577 23.5265 28.0633 23.0673C28.2169 22.9647 28.3529 22.8377 28.4657 22.6912C28.9145 22.8868 29.3238 23.1629 29.6736 23.5059C30.1633 24.0229 30.5171 24.6539 30.7028 25.3421C30.0186 25.1544 29.3924 24.7973 28.8818 24.3038ZM30.2015 22.3053H30.1966C29.9094 22.3037 29.6234 22.2682 29.3445 22.1996C29.1679 22.0943 28.9853 21.9993 28.7977 21.9152C28.8114 21.8305 28.8185 21.7449 28.8192 21.6591C28.8192 21.632 28.8164 21.6056 28.8153 21.5789C28.9958 21.4974 29.1715 21.4057 29.3417 21.3044C29.6221 21.2347 29.9097 21.1988 30.1986 21.1973C30.8945 21.2129 31.5754 21.4033 32.1788 21.7512C31.5764 22.0991 30.8965 22.2896 30.2015 22.3053Z" fill="url(#paint1_linear_3035_294)"/>
<path d="M15.9989 23.5408C17.3347 23.0198 20.4242 21.8144 20.4242 21.8144C20.4235 21.7931 20.4202 21.7721 20.4202 21.7503C20.421 21.4089 20.5254 21.0758 20.7196 20.7952L16.6963 22.3652C16.8764 21.8306 16.8976 21.255 16.7573 20.7085C16.6037 20.0609 16.2299 19.4872 15.7001 19.0859L22.514 16.8553C22.8139 16.6101 23.189 16.4762 23.5759 16.4761C23.6034 16.4761 23.6308 16.4796 23.6582 16.4808L25.6315 15.8347C25.6615 15.7785 25.6849 15.7377 25.6957 15.7196C25.9139 15.3497 26.2655 15.0779 26.6779 14.9605C27.0903 14.843 27.5319 14.8888 27.9116 15.0884L31.4042 13.9451C31.4807 13.9209 31.5605 13.9086 31.6407 13.9085C31.8148 13.9094 31.9835 13.9698 32.1189 14.0796C32.2542 14.1894 32.3482 14.3422 32.3854 14.5127L32.5743 15.3026C32.624 15.5244 32.5927 15.7567 32.4861 15.9574C32.3795 16.1581 32.2047 16.3138 31.9934 16.3964L31.3967 16.6292C31.6927 16.7604 31.9426 16.9776 32.114 17.2528L32.2898 17.1841C32.6928 17.0294 33.0263 16.7337 33.2287 16.3517C33.4311 15.9697 33.4887 15.5272 33.3909 15.1059L33.2021 14.3165C33.1206 13.9622 32.9219 13.6459 32.6385 13.4191C32.355 13.1922 32.0034 13.068 31.6407 13.0667C31.4719 13.067 31.3043 13.0934 31.1435 13.1448L14.7001 18.5275L14.3324 18.6479C14.1839 18.6514 14.0363 18.6714 13.8922 18.7075C12.6726 19.0215 11.9693 20.4273 12.3246 21.8415C12.5905 22.9004 13.4388 23.9017 14.6623 23.9017C15.1274 23.9017 15.6326 23.6839 15.9989 23.5408ZM13.139 21.636C12.8961 20.6686 13.3267 19.7224 14.101 19.5228C14.1968 19.4982 14.2953 19.4857 14.3942 19.4858C15.0734 19.4856 15.7305 20.0681 15.943 20.914C16.1859 21.8814 15.7552 22.8277 14.9809 23.027C14.8851 23.0517 14.7866 23.0641 14.6877 23.064C14.0085 23.064 13.3514 22.482 13.139 21.636Z" fill="url(#paint2_linear_3035_294)"/>
<defs>
<linearGradient id="paint0_linear_3035_294" x1="10.8665" y1="12.988" x2="10.8665" y2="21.1187" gradientUnits="userSpaceOnUse">
<stop stop-color="#FF9129"/>
<stop offset="1" stop-color="#C26006"/>
</linearGradient>
<linearGradient id="paint1_linear_3035_294" x1="27.1395" y1="15.7385" x2="27.1395" y2="27.5788" gradientUnits="userSpaceOnUse">
<stop stop-color="#FF9129"/>
<stop offset="1" stop-color="#C26006"/>
</linearGradient>
<linearGradient id="paint2_linear_3035_294" x1="22.8349" y1="13.0667" x2="22.8349" y2="23.9017" gradientUnits="userSpaceOnUse">
<stop stop-color="#FF9129"/>
<stop offset="1" stop-color="#C26006"/>
</linearGradient>
</defs>
</svg>
