<svg width="19" height="19" viewBox="0 0 19 19" fill="none" xmlns="http://www.w3.org/2000/svg">
<path fill-rule="evenodd" clip-rule="evenodd" d="M1.979 4.74984C1.979 4.53122 2.15622 4.354 2.37484 4.354H16.6248C16.8434 4.354 17.0207 4.53122 17.0207 4.74984C17.0207 4.96845 16.8434 5.14567 16.6248 5.14567H2.37484C2.15622 5.14567 1.979 4.96845 1.979 4.74984Z" fill="black"/>
<path fill-rule="evenodd" clip-rule="evenodd" d="M7.91667 1.97917C7.60172 1.97917 7.29968 2.10428 7.07698 2.32698C6.85428 2.54968 6.72917 2.85172 6.72917 3.16667V4.35417H12.2708V3.16667C12.2708 2.85172 12.1457 2.54968 11.923 2.32698C11.7003 2.10428 11.3983 1.97917 11.0833 1.97917H7.91667ZM13.0625 4.35417V3.16667C13.0625 2.64176 12.854 2.13835 12.4828 1.76718C12.1116 1.39602 11.6082 1.1875 11.0833 1.1875H7.91667C7.39176 1.1875 6.88835 1.39602 6.51718 1.76718C6.14602 2.13835 5.9375 2.64176 5.9375 3.16667V4.35417H3.95833C3.73972 4.35417 3.5625 4.53139 3.5625 4.75V15.8333C3.5625 16.3582 3.77102 16.8616 4.14218 17.2328C4.51335 17.604 5.01676 17.8125 5.54167 17.8125H13.4583C13.9832 17.8125 14.4867 17.604 14.8578 17.2328C15.229 16.8616 15.4375 16.3582 15.4375 15.8333V4.75C15.4375 4.53139 15.2603 4.35417 15.0417 4.35417H13.0625ZM4.35417 5.14583V15.8333C4.35417 16.1483 4.47928 16.4503 4.70198 16.673C4.92468 16.8957 5.22672 17.0208 5.54167 17.0208H13.4583C13.7733 17.0208 14.0753 16.8957 14.298 16.673C14.5207 16.4503 14.6458 16.1483 14.6458 15.8333V5.14583H4.35417Z" fill="black"/>
<path fill-rule="evenodd" clip-rule="evenodd" d="M7.91683 8.3125C8.13544 8.3125 8.31266 8.48972 8.31266 8.70833V13.4583C8.31266 13.6769 8.13544 13.8542 7.91683 13.8542C7.69822 13.8542 7.521 13.6769 7.521 13.4583V8.70833C7.521 8.48972 7.69822 8.3125 7.91683 8.3125Z" fill="black"/>
<path fill-rule="evenodd" clip-rule="evenodd" d="M11.0833 8.3125C11.3019 8.3125 11.4792 8.48972 11.4792 8.70833V13.4583C11.4792 13.6769 11.3019 13.8542 11.0833 13.8542C10.8647 13.8542 10.6875 13.6769 10.6875 13.4583V8.70833C10.6875 8.48972 10.8647 8.3125 11.0833 8.3125Z" fill="black"/>
</svg>
