<svg width="18" height="19" viewBox="0 0 18 19" fill="none" xmlns="http://www.w3.org/2000/svg">
<path d="M5.625 5.5625C4.43153 5.5625 3.28693 6.03661 2.44302 6.88052C1.59911 7.72443 1.125 8.86903 1.125 10.0625C1.125 13.6569 5.09063 17.0938 5.25938 17.24C5.36126 17.3271 5.49093 17.375 5.625 17.375C5.75907 17.375 5.88874 17.3271 5.99062 17.24C6.1875 17.0938 10.125 13.6569 10.125 10.0625C10.125 8.86903 9.65089 7.72443 8.80698 6.88052C7.96307 6.03661 6.81847 5.5625 5.625 5.5625ZM5.625 16.0475C4.68563 15.125 2.25 12.5544 2.25 10.0625C2.25 9.16739 2.60558 8.30895 3.23851 7.67601C3.87145 7.04308 4.72989 6.6875 5.625 6.6875C6.52011 6.6875 7.37855 7.04308 8.01149 7.67601C8.64442 8.30895 9 9.16739 9 10.0625C9 12.5544 6.56437 15.125 5.625 16.0475Z" fill="#6C6C6C"/>
<path d="M5.625 8.37514C5.29124 8.37514 4.96498 8.47411 4.68748 8.65953C4.40997 8.84496 4.19368 9.10851 4.06595 9.41686C3.93823 9.72521 3.90481 10.0645 3.96993 10.3919C4.03504 10.7192 4.19576 11.0199 4.43176 11.2559C4.66776 11.4919 4.96844 11.6526 5.29579 11.7177C5.62313 11.7828 5.96243 11.7494 6.27078 11.6217C6.57913 11.494 6.84268 11.2777 7.02811 11.0002C7.21353 10.7227 7.3125 10.3964 7.3125 10.0626C7.3125 9.61508 7.13471 9.18586 6.81824 8.86939C6.50178 8.55293 6.07255 8.37514 5.625 8.37514ZM5.625 10.6251C5.51375 10.6251 5.40499 10.5921 5.31249 10.5303C5.21999 10.4685 5.14789 10.3807 5.10532 10.2779C5.06274 10.1751 5.0516 10.062 5.07331 9.9529C5.09501 9.84378 5.14859 9.74356 5.22725 9.66489C5.30592 9.58622 5.40615 9.53265 5.51526 9.51094C5.62438 9.48924 5.73748 9.50038 5.84026 9.54295C5.94304 9.58553 6.03089 9.65762 6.0927 9.75013C6.15451 9.84263 6.1875 9.95138 6.1875 10.0626C6.1875 10.2118 6.12824 10.3549 6.02275 10.4604C5.91726 10.5659 5.77418 10.6251 5.625 10.6251ZM13.5 1.68701C12.6207 1.67195 11.7714 2.00649 11.1386 2.61714C10.5058 3.2278 10.1413 4.06464 10.125 4.94389C10.125 7.30639 12.6225 9.55076 13.0725 9.93889C13.1253 10.0006 13.1909 10.0502 13.2647 10.0842C13.3385 10.1182 13.4187 10.1358 13.5 10.1358C13.5813 10.1358 13.6615 10.1182 13.7353 10.0842C13.8091 10.0502 13.8747 10.0006 13.9275 9.93889C14.3775 9.55076 16.875 7.30639 16.875 4.94389C16.8587 4.06464 16.4942 3.2278 15.8614 2.61714C15.2286 2.00649 14.3793 1.67195 13.5 1.68701ZM13.5 8.80264C12.7856 8.12764 11.25 6.49639 11.25 4.94389C11.25 4.34715 11.4871 3.77485 11.909 3.3529C12.331 2.93094 12.9033 2.69389 13.5 2.69389C14.0967 2.69389 14.669 2.93094 15.091 3.3529C15.5129 3.77485 15.75 4.34715 15.75 4.94389C15.75 6.49639 14.2144 8.12764 13.5 8.80264Z" fill="#6C6C6C"/>
<path d="M13.5 5.84375C13.966 5.84375 14.3438 5.46599 14.3438 5C14.3438 4.53401 13.966 4.15625 13.5 4.15625C13.034 4.15625 12.6562 4.53401 12.6562 5C12.6562 5.46599 13.034 5.84375 13.5 5.84375Z" fill="#6C6C6C"/>
<path d="M9.5625 16.2504H8.4375C8.28832 16.2504 8.14524 16.3097 8.03975 16.4151C7.93426 16.5206 7.875 16.6637 7.875 16.8129C7.875 16.9621 7.93426 17.1051 8.03975 17.2106C8.14524 17.3161 8.28832 17.3754 8.4375 17.3754H9.5625C9.71168 17.3754 9.85476 17.3161 9.96025 17.2106C10.0657 17.1051 10.125 16.9621 10.125 16.8129C10.125 16.6637 10.0657 16.5206 9.96025 16.4151C9.85476 16.3097 9.71168 16.2504 9.5625 16.2504ZM15.885 16.0085C15.6863 16.1653 15.4406 16.2505 15.1875 16.2504C15.0383 16.2504 14.8952 16.3097 14.7898 16.4151C14.6843 16.5206 14.625 16.6637 14.625 16.8129C14.625 16.9621 14.6843 17.1051 14.7898 17.2106C14.8952 17.3161 15.0383 17.3754 15.1875 17.3754C15.6917 17.3744 16.181 17.204 16.5769 16.8916C16.6818 16.796 16.7466 16.6643 16.7585 16.5229C16.7703 16.3814 16.7283 16.2407 16.6407 16.129C16.5532 16.0173 16.4267 15.9428 16.2865 15.9204C16.1464 15.8981 16.0029 15.9296 15.885 16.0085ZM17.235 14.1916C17.0244 13.7331 16.6659 13.3587 16.2169 13.1285C16.1509 13.0859 16.0767 13.0575 15.9991 13.0453C15.9215 13.0331 15.8422 13.0372 15.7664 13.0575C15.6905 13.0778 15.6197 13.1137 15.5585 13.163C15.4974 13.2123 15.4472 13.2739 15.4113 13.3437C15.3754 13.4136 15.3545 13.4902 15.35 13.5686C15.3455 13.6471 15.3574 13.7256 15.3851 13.7991C15.4128 13.8726 15.4555 13.9395 15.5106 13.9955C15.5657 14.0515 15.6319 14.0953 15.705 14.1241C15.9317 14.25 16.1098 14.448 16.2113 14.6866C16.2564 14.7843 16.3287 14.8669 16.4194 14.9247C16.5101 14.9826 16.6155 15.0132 16.7231 15.0129C16.8045 15.0123 16.8849 14.9951 16.9594 14.9623C17.0296 14.9315 17.0928 14.8868 17.1451 14.8307C17.1973 14.7747 17.2376 14.7086 17.2634 14.6364C17.2892 14.5643 17.3 14.4876 17.2951 14.4111C17.2903 14.3346 17.2698 14.2599 17.235 14.1916ZM12.9375 16.2504H11.8125C11.6633 16.2504 11.5202 16.3097 11.4148 16.4151C11.3093 16.5206 11.25 16.6637 11.25 16.8129C11.25 16.9621 11.3093 17.1051 11.4148 17.2106C11.5202 17.3161 11.6633 17.3754 11.8125 17.3754H12.9375C13.0867 17.3754 13.2298 17.3161 13.3352 17.2106C13.4407 17.1051 13.5 16.9621 13.5 16.8129C13.5 16.6637 13.4407 16.5206 13.3352 16.4151C13.2298 16.3097 13.0867 16.2504 12.9375 16.2504ZM14.0625 11.8066C14.0625 11.6575 14.0032 11.5144 13.8977 11.4089C13.7923 11.3034 13.6492 11.2441 13.5 11.2441C13.4237 11.244 13.3482 11.2595 13.278 11.2895C13.2079 11.3195 13.1446 11.3635 13.092 11.4187C13.0394 11.474 12.9985 11.5393 12.972 11.6109C12.9454 11.6824 12.9337 11.7586 12.9375 11.8348C12.9657 12.3407 13.1639 12.8224 13.5 13.2016C13.5527 13.2616 13.6176 13.3097 13.6903 13.3427C13.7631 13.3757 13.842 13.3928 13.9219 13.3929C14.0579 13.3943 14.1898 13.3463 14.2931 13.2579C14.4057 13.1601 14.4749 13.0217 14.4854 12.873C14.4959 12.7243 14.447 12.5774 14.3494 12.4648C14.1823 12.284 14.0812 12.0521 14.0625 11.8066Z" fill="#6C6C6C"/>
</svg>
