<svg width="29" height="24" viewBox="0 0 29 24" fill="none" xmlns="http://www.w3.org/2000/svg">
<path fill-rule="evenodd" clip-rule="evenodd" d="M11.9848 15.3462C8.11714 15.3462 4.81429 15.931 4.81429 18.2729C4.81429 20.6148 8.09619 21.2205 11.9848 21.2205C15.8524 21.2205 19.1543 20.6348 19.1543 18.2938C19.1543 15.9529 15.8733 15.3462 11.9848 15.3462Z" stroke="white" stroke-width="1.5" stroke-linecap="round" stroke-linejoin="round"/>
<path fill-rule="evenodd" clip-rule="evenodd" d="M11.9848 12.0059C14.5229 12.0059 16.58 9.94782 16.58 7.40972C16.58 4.87163 14.5229 2.81448 11.9848 2.81448C9.44667 2.81448 7.38855 4.87163 7.38855 7.40972C7.38 9.93925 9.42381 11.9973 11.9524 12.0059H11.9848Z" stroke="white" stroke-width="1.5" stroke-linecap="round" stroke-linejoin="round"/>
<path fill-rule="evenodd" clip-rule="evenodd" d="M20 21.8906C20.0568 21.8909 20.1136 21.891 20.1705 21.891C22.1203 21.891 24.0144 21.7461 25.4441 21.2666C26.1628 21.0255 26.8198 20.682 27.3038 20.1795C27.8056 19.6585 28.09 18.9976 28.09 18.2143C28.09 17.4327 27.8082 16.7714 27.3092 16.2484C26.8276 15.7436 26.1729 15.3968 25.4549 15.1526C24.0269 14.6669 22.132 14.5167 20.1705 14.5167C20.1136 14.5167 20.0568 14.5168 20 14.5171V16.0171C20.0566 16.0168 20.1134 16.0167 20.1705 16.0167C22.0976 16.0167 23.7874 16.1698 24.972 16.5727C25.5603 16.7728 25.9689 17.0166 26.224 17.2839C26.4617 17.5331 26.59 17.8255 26.59 18.2143C26.59 18.6015 26.4616 18.8917 26.2235 19.1389C25.9676 19.4046 25.5574 19.6464 24.9671 19.8444C23.779 20.243 22.0883 20.391 20.1705 20.391C20.1134 20.391 20.0566 20.3908 20 20.3906V21.8906Z" fill="white"/>
<path fill-rule="evenodd" clip-rule="evenodd" d="M20 12.6614C22.7638 12.455 24.9415 10.1465 24.9415 7.33022C24.9415 4.51374 22.7637 2.20635 20 2V3.50592C21.9341 3.70768 23.4415 5.3427 23.4415 7.33022C23.4415 9.31792 21.9339 10.9536 20 11.1555V12.6614Z" fill="white"/>
</svg>
