<svg width="32" height="32" viewBox="0 0 32 32" fill="none" xmlns="http://www.w3.org/2000/svg">
<path d="M11.5968 16C11.4386 15.9967 11.2881 15.9331 11.1769 15.8227C11.0635 15.7094 11 15.5569 11 15.3981C11 15.2393 11.0635 15.0868 11.1769 14.9735L13.776 12.4257V7.65168C13.769 7.56872 13.7796 7.48524 13.8071 7.40651C13.8346 7.32778 13.8785 7.25551 13.9359 7.19427C13.9933 7.13303 14.063 7.08414 14.1407 7.0507C14.2183 7.01726 14.3022 7 14.387 7C14.4717 7 14.5556 7.01726 14.6332 7.0507C14.7109 7.08414 14.7806 7.13303 14.838 7.19427C14.8954 7.25551 14.9393 7.32778 14.9668 7.40651C14.9943 7.48524 15.0049 7.56872 14.9979 7.65168V12.673C14.9956 12.8277 14.9324 12.9755 14.8215 13.0853L12.0166 15.8227C11.9054 15.9331 11.7549 15.9967 11.5968 16Z" fill="#D80005"/>
<path d="M27.2346 30H12.7643C12.2761 30.0003 11.7966 29.8838 11.3745 29.6623C10.9524 29.4409 10.6029 29.1225 10.3615 28.7395C10.12 28.3565 9.99537 27.9226 10.0001 27.4819C10.0049 27.0413 10.1389 26.6096 10.3886 26.231L17.6237 15.2244C17.8681 14.8514 18.2159 14.5423 18.6329 14.3276C19.0499 14.1129 19.5216 14 20.0017 14C20.4818 14 20.9535 14.1129 21.3705 14.3276C21.7875 14.5423 22.1353 14.8514 22.3797 15.2244L29.6148 26.231C29.8632 26.6101 29.996 27.0419 29.9999 27.4824C30.0038 27.9229 29.8785 28.3565 29.6368 28.7392C29.3952 29.1219 29.0456 29.4401 28.6238 29.6615C28.2019 29.8829 27.7226 29.9997 27.2346 30ZM19.9994 15.1878C19.7485 15.1882 19.5021 15.2476 19.2843 15.3601C19.0665 15.4726 18.885 15.6344 18.7576 15.8295L11.5135 26.8442C11.3823 27.0435 11.3119 27.2706 11.3096 27.5024C11.3072 27.7341 11.3729 27.9623 11.5001 28.1637C11.6272 28.3651 11.8111 28.5325 12.0332 28.6489C12.2553 28.7653 12.5075 28.8265 12.7643 28.8262H27.2346C27.4914 28.8265 27.7436 28.7653 27.9657 28.6489C28.1878 28.5325 28.3717 28.3651 28.4988 28.1637C28.626 27.9623 28.6917 27.7341 28.6893 27.5024C28.687 27.2706 28.6166 27.0435 28.4854 26.8442L21.2503 15.8295C21.1221 15.6332 20.9392 15.4707 20.7197 15.3581C20.5002 15.2455 20.2519 15.1868 19.9994 15.1878Z" fill="#D80005"/>
<path d="M20.7073 18.3575C20.6197 18.2452 20.5116 18.1552 20.3903 18.0936C20.2691 18.0319 20.1374 18 20.0042 18C19.8711 18 19.7394 18.0319 19.6182 18.0936C19.4969 18.1552 19.3888 18.2452 19.3012 18.3575C19.1914 18.4947 19.1084 18.6561 19.0576 18.8313C19.0068 19.0065 18.9893 19.1917 19.0063 19.3749L19.2932 23.2728C19.3066 23.4706 19.3863 23.6554 19.5162 23.7902C19.6462 23.9251 19.8169 24 19.9941 24C20.1714 24 20.3421 23.9251 20.4721 23.7902C20.602 23.6554 20.6817 23.4706 20.6951 23.2728L20.9941 19.3749C21.0102 19.1925 20.9931 19.0082 20.9438 18.8333C20.8945 18.6585 20.814 18.4966 20.7073 18.3575Z" fill="#D80005"/>
<path d="M19.9997 25C19.8009 25.0001 19.6066 25.0594 19.4416 25.1704C19.2767 25.2814 19.1486 25.4391 19.0737 25.6233C18.9988 25.8075 18.9805 26.0098 19.0211 26.2045C19.0618 26.3991 19.1595 26.5772 19.3019 26.716C19.4443 26.8548 19.6248 26.948 19.8204 26.9837C20.016 27.0195 20.2178 26.996 20.4 26.9165C20.5822 26.837 20.7366 26.7049 20.8434 26.5372C20.9503 26.3695 21.0047 26.1738 20.9997 25.975C20.9932 25.7141 20.8849 25.4662 20.6981 25.284C20.5113 25.1018 20.2606 24.9999 19.9997 25Z" fill="#D80005"/>
<path d="M13.3066 24H13.2636C10.9163 23.8423 8.6813 22.9354 6.88678 21.4124C5.09226 19.8893 3.83276 17.8304 3.29321 15.538C2.75365 13.2455 2.96247 10.8403 3.88899 8.67536C4.81552 6.51046 6.41094 4.69998 8.44101 3.50973C10.4711 2.31947 12.8289 1.81217 15.1682 2.06229C17.5075 2.3124 19.705 3.30677 21.4382 4.8994C23.1714 6.49202 24.3489 8.59899 24.7979 10.911C25.2468 13.2229 24.9435 15.6181 23.9325 17.7447C23.8997 17.8234 23.8512 17.8945 23.79 17.9538C23.7289 18.0131 23.6563 18.0593 23.5768 18.0896C23.4972 18.12 23.4123 18.1338 23.3273 18.1303C23.2422 18.1267 23.1588 18.1059 23.082 18.0691C23.0052 18.0323 22.9367 17.9802 22.8807 17.9161C22.8247 17.8519 22.7822 17.777 22.756 17.696C22.7298 17.6149 22.7203 17.5293 22.7281 17.4444C22.7359 17.3596 22.7609 17.2772 22.8015 17.2023C23.6681 15.3806 23.9494 13.3349 23.6067 11.3466C23.264 9.35826 22.3142 7.52516 20.8879 6.09956C19.9984 5.20915 18.9457 4.49877 17.7875 4.0073C16.586 3.5016 15.2958 3.24112 13.9925 3.24112C12.6892 3.24112 11.399 3.5016 10.1976 4.0073C7.85854 5.00031 5.99714 6.86535 5.00718 9.20781C4.40275 10.6411 4.14919 12.1982 4.2676 13.7494C4.38601 15.3006 4.87297 16.8011 5.68791 18.1257C6.50286 19.4504 7.62219 20.5609 8.95266 21.3648C10.2831 22.1687 11.7862 22.6427 13.3367 22.7472C13.4941 22.7646 13.6391 22.8408 13.7427 22.9607C13.8463 23.0805 13.6875 22.9202 13.682 23.0786C13.6766 23.237 13.6116 23.3875 13.5 23.5C13.3884 23.6125 13.4519 23.9935 13.2937 24H13.3066Z" fill="#D80005"/>
</svg>
