<svg width="26" height="26" viewBox="0 0 26 26" fill="none" xmlns="http://www.w3.org/2000/svg">
<path d="M9.75 17.0625C9.75 16.847 9.8356 16.6403 9.98798 16.488C10.1403 16.3356 10.347 16.25 10.5625 16.25H15.4375C15.653 16.25 15.8597 16.3356 16.012 16.488C16.1644 16.6403 16.25 16.847 16.25 17.0625C16.25 17.278 16.1644 17.4847 16.012 17.637C15.8597 17.7894 15.653 17.875 15.4375 17.875H10.5625C10.347 17.875 10.1403 17.7894 9.98798 17.637C9.8356 17.4847 9.75 17.278 9.75 17.0625ZM6.5 12.1875C6.5 11.972 6.5856 11.7653 6.73798 11.613C6.89035 11.4606 7.09701 11.375 7.3125 11.375H18.6875C18.903 11.375 19.1097 11.4606 19.262 11.613C19.4144 11.7653 19.5 11.972 19.5 12.1875C19.5 12.403 19.4144 12.6097 19.262 12.762C19.1097 12.9144 18.903 13 18.6875 13H7.3125C7.09701 13 6.89035 12.9144 6.73798 12.762C6.5856 12.6097 6.5 12.403 6.5 12.1875ZM3.25 7.3125C3.25 7.09701 3.3356 6.89035 3.48798 6.73798C3.64035 6.5856 3.84701 6.5 4.0625 6.5H21.9375C22.153 6.5 22.3597 6.5856 22.512 6.73798C22.6644 6.89035 22.75 7.09701 22.75 7.3125C22.75 7.52799 22.6644 7.73465 22.512 7.88702C22.3597 8.0394 22.153 8.125 21.9375 8.125H4.0625C3.84701 8.125 3.64035 8.0394 3.48798 7.88702C3.3356 7.73465 3.25 7.52799 3.25 7.3125Z" fill="black"/>
</svg>
