<svg width="120" height="120" viewBox="0 0 120 120" fill="none" xmlns="http://www.w3.org/2000/svg">
<path d="M60 115C39.6265 115 19 110.558 19 102.068C19 95.0663 32.3056 91.8786 40.2354 90.6015C40.8005 90.5105 41.3785 90.6475 41.8425 90.9822C42.3065 91.3169 42.6183 91.822 42.7094 92.3864C42.8006 92.9508 42.6635 93.5282 42.3283 93.9916C41.9932 94.455 41.4875 94.7665 40.9225 94.8575C28.0951 96.9227 23.3158 100.377 23.3158 102.068C23.3158 104.994 36.2632 110.689 60 110.689C83.7368 110.689 96.6842 104.994 96.6842 102.068C96.6842 100.377 91.9049 96.9227 79.0775 94.8568C78.7977 94.8118 78.5296 94.7121 78.2884 94.5635C78.0471 94.415 77.8376 94.2204 77.6716 93.9909C77.5057 93.7615 77.3867 93.5016 77.3213 93.2262C77.2559 92.9508 77.2454 92.6652 77.2906 92.3857C77.3357 92.1063 77.4355 91.8384 77.5842 91.5975C77.733 91.3566 77.9278 91.1473 78.1575 90.9815C78.3872 90.8158 78.6474 90.6969 78.9231 90.6316C79.1989 90.5663 79.4848 90.5558 79.7646 90.6009C87.6944 91.8786 101 95.0663 101 102.068C101 110.558 80.3736 115 60 115Z" fill="#CECECE"/>
<path d="M59.9999 4C50.274 4.01084 40.9495 7.87468 34.0722 14.7438C27.1949 21.6129 23.3265 30.9264 23.3157 40.6408C23.3157 62.7268 56.9191 102.837 58.35 104.534C58.5523 104.774 58.8049 104.967 59.0899 105.1C59.3749 105.232 59.6855 105.301 59.9999 105.301C60.3143 105.301 60.6249 105.232 60.9099 105.1C61.1949 104.967 61.4474 104.774 61.6498 104.534C63.0807 102.837 96.6841 62.7268 96.6841 40.6408C96.6732 30.9264 92.8048 21.6129 85.9276 14.7438C79.0503 7.87468 69.7258 4.01084 59.9999 4ZM59.9999 55.7282C57.0123 55.7282 54.0919 54.8433 51.6078 53.1855C49.1238 51.5277 47.1877 49.1713 46.0444 46.4145C44.9012 43.6576 44.602 40.6241 45.1849 37.6974C45.7677 34.7707 47.2063 32.0824 49.3189 29.9724C51.4314 27.8624 54.1229 26.4255 57.053 25.8433C59.9831 25.2612 63.0203 25.5599 65.7804 26.7019C68.5405 27.8438 70.8997 29.7776 72.5595 32.2587C74.2192 34.7398 75.1051 37.6568 75.1051 40.6408C75.1005 44.6408 73.5076 48.4756 70.6758 51.3041C67.844 54.1325 64.0046 55.7236 59.9999 55.7282Z" fill="#CECECE"/>
<mask id="path-3-inside-1_918_951" fill="white">
<path d="M87.7991 8.10675C89.4949 6.43383 92.2274 6.45081 93.9023 8.14465C95.5773 9.8385 95.5603 12.5678 93.8645 14.2407L32.4521 74.8233C30.7562 76.4962 28.0237 76.4792 26.3488 74.7854C24.6739 73.0915 24.6908 70.3622 26.3866 68.6893L87.7991 8.10675Z"/>
</mask>
<path d="M87.7991 8.10675C89.4949 6.43383 92.2274 6.45081 93.9023 8.14465C95.5773 9.8385 95.5603 12.5678 93.8645 14.2407L32.4521 74.8233C30.7562 76.4962 28.0237 76.4792 26.3488 74.7854C24.6739 73.0915 24.6908 70.3622 26.3866 68.6893L87.7991 8.10675Z" fill="#D80005"/>
<path d="M90.8696 5.07767L96.9351 11.2116L90.8696 5.07767ZM29.3815 77.8524L23.3161 71.7184L29.3815 77.8524ZM23.3161 71.7184L90.8696 5.07767L23.3161 71.7184ZM93.9023 8.14465C96.1598 10.4276 96.1369 14.106 93.8513 16.3607L34.5746 74.8365C32.289 77.0912 28.6062 77.0683 26.3488 74.7854C27.4412 75.8902 29.7016 75.4296 31.3974 73.7567L92.8098 13.1741C94.5056 11.5012 94.9948 9.24943 93.9023 8.14465Z" fill="white" mask="url(#path-3-inside-1_918_951)"/>
</svg>
