<svg width="40" height="40" viewBox="0 0 40 40" fill="none" xmlns="http://www.w3.org/2000/svg">
<path d="M36.592 28H3.33173C2.897 28 2.60706 27.7101 2.60706 27.2753V15.6812C2.60706 15.2465 2.82442 14.884 3.18687 14.5944C3.54906 14.3771 3.98408 14.3045 4.41882 14.5219C11.0129 17.4205 13.6216 14.6667 14.5636 12.7827C14.7809 12.4205 15.1434 12.1306 15.5056 12.058C15.9403 11.9855 16.375 12.1305 16.6649 12.4927C20.2156 16.2608 24.9983 17.1302 28.8383 17.7826C31.8091 18.2899 34.2004 18.7246 35.3598 20.3187C38.0411 23.8694 37.3164 27.3474 37.2439 27.4927C37.2439 27.7826 36.8814 28 36.5918 28L36.592 28ZM4.0564 26.5507H35.94C36.0125 25.5362 35.8674 23.3625 34.2008 21.1886C33.4035 20.1018 31.1574 19.6668 28.6212 19.2321C24.6359 18.5074 19.6358 17.638 15.7952 13.6526C14.7083 15.6091 11.5924 19.1598 4.12907 15.9713L4.12881 26.5507H4.0564Z" fill="white"/>
<path d="M36.1566 24.3773H3.33173C2.897 24.3773 2.60706 24.0874 2.60706 23.6526C2.60706 23.2179 2.89696 22.928 3.33173 22.928H36.1573C36.592 22.928 36.882 23.2179 36.882 23.6526C36.8817 24.0874 36.5921 24.3773 36.1571 24.3773H36.1566Z" fill="white"/>
<path d="M22.8966 24.3773C22.7518 24.3773 22.6067 24.3048 22.5344 24.2325C22.1722 24.0151 22.0997 23.5804 22.3171 23.2179L25.9403 17.6384C26.1577 17.2763 26.5924 17.2037 26.9548 17.4211C27.317 17.6384 27.3896 18.0732 27.1722 18.4356L23.549 24.0151C23.3313 24.2322 23.114 24.3773 22.8966 24.3773Z" fill="white"/>
<path d="M18.5485 24.3773C18.4037 24.3773 18.2586 24.3048 18.1863 24.2325C17.8241 24.0151 17.7516 23.5804 17.9689 23.218L22.2442 16.6964C22.4616 16.3342 22.8963 16.2617 23.2588 16.4791C23.621 16.6964 23.6935 17.1312 23.4761 17.4936L19.2008 24.0151C18.9832 24.2322 18.7658 24.3773 18.5485 24.3773Z" fill="white"/>
<path d="M14.2011 24.3773C14.0562 24.3773 13.9112 24.3773 13.8389 24.2325C13.4767 24.0151 13.4041 23.5804 13.6215 23.2179L18.6937 15.1019C18.9111 14.7397 19.3458 14.6671 19.7083 14.8845C20.0705 15.1019 20.143 15.5366 19.9257 15.8991L14.8534 24.0151C14.7081 24.2322 14.4184 24.3773 14.2011 24.3773Z" fill="white"/>
</svg>
