<svg width="32" height="32" viewBox="0 0 32 32" fill="none" xmlns="http://www.w3.org/2000/svg">
<path d="M6.8836 4H25.1169C25.5772 4 26.0018 4.17164 26.3312 4.4614C26.6601 4.75077 26.892 5.15864 26.968 5.63151L27.9686 11.8587C27.9897 11.9905 28 12.1168 28 12.2353C28 12.9091 27.7113 13.5171 27.261 13.9806C27.0147 14.234 26.7181 14.4446 26.394 14.5991V25.2511C26.394 26.0069 26.0965 26.6946 25.6174 27.1928C25.1387 27.6906 24.4774 28 23.7504 28H8.2492C7.52353 28 6.86292 27.6906 6.38387 27.1928C5.90314 26.695 5.6056 26.0069 5.6056 25.2511V14.5991C5.28149 14.4449 4.98527 14.234 4.73899 13.9806C4.28838 13.5167 4 12.9088 4 12.2353C4 12.1166 4.01011 11.9905 4.03144 11.8587L5.03204 5.63151C5.10801 5.15844 5.34043 4.75074 5.66865 4.4614C5.99781 4.17105 6.42361 4 6.8836 4ZM17.6772 16.1665H23.3717C23.6679 16.1665 23.9083 16.4165 23.9083 16.7246V21.0836C23.9083 21.3917 23.6679 21.6417 23.3717 21.6417H17.6772C17.3809 21.6417 17.1405 21.3917 17.1405 21.0836V16.7246C17.1405 16.4165 17.3809 16.1665 17.6772 16.1665ZM22.8351 17.2829H18.2141V20.5255H22.8351V17.2829ZM14.5542 26.8842V19.8634H10.18V26.8842H14.5542ZM9.10641 26.8842V19.3055C9.10641 18.9974 9.34687 18.7474 9.64309 18.7474H15.0909C15.3871 18.7474 15.6276 18.9974 15.6276 19.3055V26.8842H23.7499C24.1813 26.8842 24.5737 26.7003 24.8583 26.4045C25.1429 26.1085 25.32 25.7001 25.32 25.2515V14.8825C25.2633 14.8862 25.2071 14.8881 25.1517 14.8881C24.3748 14.8881 23.6681 14.5577 23.1566 14.0255C23.0501 13.9147 22.9522 13.7954 22.8637 13.6686C22.7754 13.7954 22.6773 13.9147 22.5708 14.0255C22.059 14.5577 21.3524 14.8881 20.5757 14.8881C19.7987 14.8881 19.0921 14.5577 18.5805 14.0255C18.474 13.9147 18.3762 13.7954 18.2877 13.6686C18.1993 13.7954 18.1013 13.9147 17.9948 14.0255C17.483 14.5577 16.7764 14.8881 15.9996 14.8881C15.2227 14.8881 14.5161 14.5577 14.0045 14.0255C13.898 13.9147 13.8001 13.7954 13.7116 13.6686C13.6233 13.7954 13.5252 13.9147 13.4188 14.0255C12.9069 14.5577 12.2003 14.8881 11.4236 14.8881C10.6466 14.8881 9.94002 14.5577 9.42844 14.0255C9.32196 13.9147 9.22409 13.7954 9.13558 13.6686C9.04725 13.7954 8.9492 13.9147 8.84272 14.0255C8.3309 14.5577 7.6243 14.8881 6.84756 14.8881C6.79217 14.8881 6.73566 14.8862 6.67896 14.8825V25.2515C6.67896 25.7001 6.85579 26.1085 7.14023 26.4045C7.42411 26.7007 7.81709 26.8842 8.249 26.8842H9.10641ZM22.3273 11.9509V5.11691H18.8248V11.9509C18.8248 12.4514 19.0222 12.9071 19.3394 13.237C19.6566 13.5668 20.0949 13.7721 20.5761 13.7721C21.0574 13.7721 21.4957 13.5668 21.8129 13.237C22.13 12.9071 22.3273 12.4514 22.3273 11.9509ZM23.4009 5.11691V11.9509C23.4009 12.4514 23.5983 12.9071 23.9155 13.237C24.2327 13.5668 24.6709 13.7721 25.1522 13.7721C25.257 13.7721 25.3579 13.7636 25.452 13.747C25.8528 13.6775 26.2304 13.4757 26.5061 13.1924C26.7617 12.9291 26.9262 12.5944 26.9262 12.236C26.9262 12.1676 26.9215 12.1023 26.912 12.0425L25.9114 5.81532C25.8788 5.61099 25.7793 5.43565 25.6389 5.31206C25.5001 5.18985 25.3172 5.11707 25.1168 5.11707L23.4009 5.11691ZM17.7514 11.9509V5.11691H14.2489V11.9509C14.2489 12.4514 14.4463 12.9071 14.7635 13.237C15.0807 13.5668 15.519 13.7721 16.0002 13.7721C16.4815 13.7721 16.9198 13.5668 17.237 13.237C17.5541 12.9071 17.7514 12.4514 17.7514 11.9509ZM13.1753 11.9509V5.11691H9.67284V11.9509C9.67284 12.4514 9.87027 12.9071 10.1874 13.237C10.5046 13.5668 10.9429 13.7721 11.4242 13.7721C11.9054 13.7721 12.3437 13.5668 12.6609 13.237C12.9781 12.9071 13.1753 12.4514 13.1753 11.9509ZM8.59928 11.9509V5.11691H6.88351C6.6829 5.11691 6.50008 5.1895 6.36105 5.3119C6.22126 5.43509 6.12152 5.61042 6.08896 5.81516L5.08836 12.0424C5.07882 12.1019 5.07414 12.1675 5.07414 12.2358C5.07414 12.5942 5.23826 12.9288 5.49425 13.1922C5.76989 13.4756 6.14753 13.6772 6.54836 13.7469C6.64248 13.7634 6.74353 13.772 6.84814 13.772C7.32944 13.772 7.76768 13.5667 8.08486 13.2368C8.40204 12.907 8.59928 12.4514 8.59928 11.9509Z" fill="#033EB2" stroke="#033EB2" stroke-width="0.5"/>
</svg>
