<svg width="40" height="40" viewBox="0 0 40 40" fill="none" xmlns="http://www.w3.org/2000/svg">
<path d="M33.3333 30.0636C33.3395 26.5228 32.1995 21.0413 31.7146 18.8526C30.7202 14.4081 29.8835 12.2923 27.3065 10.7397C27.2821 10.7215 27.258 10.7094 27.2276 10.6913L25.7906 10.0061C25.2146 9.23613 25.1601 8.93903 25.4753 8.48417C25.9059 7.87178 25.8634 6.99266 25.3844 6.44096C24.0504 4.91307 20.4064 4.87057 19.9943 4.87057C19.5819 4.87057 15.9378 4.91308 14.6041 6.44708C14.119 6.99878 14.0826 7.87812 14.5132 8.49029C14.7437 8.81765 14.9074 9.05407 14.1918 10.0122L12.7971 10.6792C12.7728 10.6912 12.7487 10.7035 12.7182 10.7156C10.1112 12.2739 9.27445 14.3898 8.27396 18.8522C7.78885 21.041 6.649 26.5163 6.65518 30.0633C6.65518 30.8697 6.75816 31.8217 6.85523 32.3491C6.80067 32.4583 6.76429 32.5856 6.76429 32.719V34.3742C6.76429 34.8229 7.12802 35.1928 7.57677 35.1928H11.1663C11.615 35.1928 11.9788 34.829 11.9788 34.3742V32.719C11.9788 32.6281 11.9606 32.5371 11.9363 32.4583C11.9606 32.4037 11.9788 32.3491 11.9908 32.2946C12.1909 31.3912 12.5425 29.4328 12.876 27.4257C13.0034 30.1056 13.1004 32.531 13.1004 32.5612C13.1125 32.8158 13.2884 33.034 13.5369 33.0947C16.411 33.7981 19.8367 33.8042 19.9818 33.8042H19.9939H20.0059C20.1514 33.8042 23.5772 33.7981 26.4509 33.0947C26.6995 33.034 26.8753 32.8158 26.8873 32.5612C26.8873 32.5248 26.9844 30.1238 27.1117 27.4559C27.4391 29.4507 27.7907 31.3909 27.9908 32.2884C28.0028 32.343 28.021 32.4037 28.0453 32.4521C28.0151 32.5369 28.0028 32.6219 28.0028 32.7128V34.368C28.0028 34.8167 28.3666 35.1866 28.8153 35.1866H32.4048C32.8535 35.1866 33.2173 34.8229 33.2173 34.368V32.7128C33.2173 32.5794 33.187 32.4521 33.1264 32.343C33.23 31.8217 33.333 30.8637 33.333 30.0633L33.3333 30.0636ZM15.4467 7.82986C15.3194 7.64799 15.3315 7.35701 15.4649 7.19928C16.3076 6.22905 19.018 6.01082 19.9942 6.01082C20.9703 6.01082 23.6807 6.22314 24.5234 7.19928C24.6628 7.35683 24.6689 7.65394 24.5416 7.82986C24.1838 8.33316 24.1051 8.80599 24.1597 9.23042L24.1294 9.21836C23.9901 9.01831 23.7353 8.86056 23.4018 8.69688C21.3645 7.70256 18.6238 7.70256 16.5866 8.69688C16.247 8.86669 15.9923 9.01831 15.853 9.22429L15.8348 9.23634C15.9255 8.69688 15.7498 8.26633 15.4465 7.82988L15.4467 7.82986ZM19.9942 11.2011C18.9816 10.6312 17.9387 10.0188 17.3021 9.62458C18.9453 8.90917 21.0432 8.90917 22.6864 9.62458C22.0496 10.0188 21.0067 10.631 19.9942 11.2011ZM10.8446 34.0412H7.91001V33.0408H10.8507L10.8446 34.0412ZM10.9112 31.9009H7.94024C7.86749 31.4038 7.80089 30.664 7.79475 30.0636C7.78862 26.541 9.01347 20.7868 9.38944 19.1075C10.2747 15.1543 10.9659 13.3415 12.7727 12.0557C13.1608 13.4442 12.6698 16.1545 12.2029 17.7428C12.1785 17.8216 12.1726 17.9003 12.1847 17.9853C12.1847 18.0035 12.3727 19.3859 12.5484 21.6173V21.6839C12.5666 22.3268 11.457 29.3724 10.9112 31.9005L10.9112 31.9009ZM13.846 23.9034C13.6702 20.7383 13.3972 18.4827 13.3306 17.943C13.5611 17.1244 14.5191 13.5046 13.7853 11.4796L16.2531 10.2973C16.9383 10.7701 18.3934 11.6069 19.4423 12.195V32.6467C18.4357 32.6164 16.2165 32.5073 14.234 32.0768C14.1733 30.7853 14.0096 26.8805 13.846 23.9033L13.846 23.9034ZM26.1485 23.9034C25.9848 26.8804 25.8211 30.7852 25.7665 32.0769C23.7961 32.5013 21.5951 32.6165 20.5764 32.6468V12.1832C21.6253 11.5951 23.0564 10.7704 23.7354 10.3037L26.2092 11.486C25.4756 13.511 26.4335 17.1308 26.6638 17.9493C26.6154 18.3374 26.4576 19.635 26.306 21.5207C26.306 21.5327 26.2999 21.545 26.2999 21.5632C26.2999 21.5875 26.2937 21.6177 26.2937 21.6602C26.2455 22.3331 26.1969 23.0851 26.1485 23.9035L26.1485 23.9034ZM27.4399 21.7206C27.6156 19.4226 27.8097 17.9917 27.8159 17.9735C27.8279 17.8947 27.822 17.8099 27.7977 17.731C27.3308 16.1486 26.8336 13.4443 27.2216 12.0494C29.0284 13.3347 29.7197 15.1538 30.5988 19.1012C30.9748 20.7806 32.1994 26.5346 32.1935 30.0573C32.1935 30.6636 32.1269 31.3974 32.048 31.8946H29.0709C28.5435 29.4269 27.4642 22.5994 27.4399 21.7202L27.4399 21.7206ZM32.0783 34.0415H29.1376V33.041H32.0783V34.0415Z" fill="white"/>
</svg>
