<svg width="40" height="40" viewBox="0 0 40 40" fill="none" xmlns="http://www.w3.org/2000/svg">
<path d="M31.1429 14.4286H27.4286V14.1674C27.4286 10.192 24.2366 7 20.2612 7H19.7969C15.8214 7 12.5714 10.192 12.5714 14.1674V14.4286H8.85714L7 33H33L31.1429 14.4286ZM14.4286 14.1674C14.4286 11.225 16.8545 8.85714 19.7969 8.85714H20.2612C23.2036 8.85714 25.5714 11.225 25.5714 14.1674V14.4286H14.4286V14.1674ZM9.07768 31.1429L10.5228 16.2857H12.5714V18.3924C12.0143 18.7116 11.6429 19.3152 11.6429 20C11.6429 21.0272 12.4728 21.8571 13.5 21.8571C14.5272 21.8571 15.3571 21.0272 15.3571 20C15.3571 19.3152 14.9857 18.7116 14.4286 18.3924V16.2857H25.5714V18.3924C25.0143 18.7116 24.6429 19.3152 24.6429 20C24.6429 21.0272 25.4728 21.8571 26.5 21.8571C27.5272 21.8571 28.3571 21.0272 28.3571 20C28.3571 19.3152 27.9857 18.7116 27.4286 18.3924V16.2857H29.483L30.9281 31.1429H9.07768Z" fill="white"/>
</svg>
