<svg width="32" height="32" viewBox="0 0 32 32" fill="none" xmlns="http://www.w3.org/2000/svg">
<path d="M21.0299 3.93258H26.2855C26.6806 3.93258 27.0001 4.25227 27.0001 4.64718V29.4821C27.0001 29.8772 26.6804 30.1967 26.2855 30.1967H5.73633C5.3412 30.1967 5.02173 29.877 5.02173 29.4821V4.64718C5.02173 4.25205 5.34142 3.93258 5.73633 3.93258H10.9919V2.54132C10.9919 2.1462 11.3116 1.82672 11.7065 1.82672H20.315C20.7101 1.82672 21.0296 2.14642 21.0296 2.54132V3.93258H21.0299ZM15.8813 24.1943C15.4862 24.1943 15.1667 23.8746 15.1667 23.4797C15.1667 23.0846 15.4864 22.7651 15.8813 22.7651H22.6615C23.0566 22.7651 23.3761 23.0848 23.3761 23.4797C23.3761 23.8748 23.0564 24.1943 22.6615 24.1943H15.8813ZM8.85513 23.9796C8.57559 23.7 8.57559 23.2476 8.85513 22.969C9.13467 22.6895 9.58705 22.6895 9.86569 22.969L10.673 23.7764L12.7847 21.6658C13.0642 21.3863 13.5166 21.3863 13.7952 21.6658C14.0748 21.9454 14.0748 22.3978 13.7952 22.6764L11.1789 25.2927C10.8994 25.5723 10.447 25.5723 10.1684 25.2927L8.85513 23.9796ZM15.8813 18.9226C15.4862 18.9226 15.1667 18.6029 15.1667 18.208C15.1667 17.8128 15.4864 17.4934 15.8813 17.4934H22.6615C23.0566 17.4934 23.3761 17.8131 23.3761 18.208C23.3761 18.6031 23.0564 18.9226 22.6615 18.9226H15.8813ZM8.85513 18.7078C8.57559 18.4283 8.57559 17.9759 8.85513 17.6973C9.13467 17.4177 9.58705 17.4177 9.86569 17.6973L10.673 18.5055L12.7847 16.3938C13.0642 16.1143 13.5166 16.1143 13.7952 16.3938C14.0748 16.6733 14.0748 17.1257 13.7952 17.4044L11.1789 20.0207C10.8994 20.3002 10.447 20.3002 10.1684 20.0207L8.85542 18.7078L8.85513 18.7078ZM15.8813 13.6517C15.4862 13.6517 15.1667 13.332 15.1667 12.9371C15.1667 12.542 15.4864 12.2225 15.8813 12.2225H22.6615C23.0566 12.2225 23.3761 12.5422 23.3761 12.9371C23.3761 13.3322 23.0564 13.6517 22.6615 13.6517H15.8813ZM8.85513 13.437C8.57559 13.1574 8.57559 12.705 8.85513 12.4264C9.13467 12.1469 9.58705 12.1469 9.86569 12.4264L10.673 13.2338L12.7847 11.1232C13.0642 10.8437 13.5166 10.8437 13.7952 11.1232C14.0748 11.4028 14.0748 11.8552 13.7952 12.1338L11.1789 14.7501C10.8994 15.0297 10.447 15.0297 10.1684 14.7501L8.85513 13.437ZM10.9916 5.3618H6.45064V28.7677H25.5702V5.3618H21.0293V7.0994C21.0293 7.49452 20.7096 7.814 20.3147 7.814H11.7062C11.3111 7.814 10.9916 7.4943 10.9916 7.0994V5.3618ZM19.6001 6.3848V3.25594H12.4206V6.3848H19.6001Z" fill="#033EB2" stroke="#033EB2" stroke-width="0.25"/>
</svg>
