<svg width="32" height="32" viewBox="0 0 32 32" fill="none" xmlns="http://www.w3.org/2000/svg">
<path fill-rule="evenodd" clip-rule="evenodd" d="M23.0971 6.99117C21.0053 6.99117 19.3057 8.69418 19.3057 10.7855C19.3057 12.2774 20.1706 13.5699 21.4259 14.1883C19.0975 14.8538 17.3368 16.8737 17.0527 19.3385C15.976 18.1134 14.5364 17.2151 12.9024 16.8125C14.7062 16.0513 15.9736 14.265 15.9736 12.1884C15.9736 9.42289 13.7259 7.17213 10.9573 7.17213C8.1916 7.17213 5.94407 9.42305 5.94407 12.1884C5.94407 14.265 7.2115 16.0513 9.01382 16.8125C5.4754 17.6847 2.84512 20.8822 2.84512 24.6896C2.84405 24.7716 2.87567 24.8505 2.93335 24.9088C2.99081 24.9673 3.06942 25 3.15145 25C3.23348 25 3.31188 24.9673 3.36956 24.9088C3.42703 24.8505 3.45886 24.7714 3.45758 24.6894C3.45758 20.6423 6.65568 17.3509 10.6615 17.1956C10.7596 17.2014 10.858 17.2048 10.9576 17.2048C11.0571 17.2048 11.1558 17.2014 11.2539 17.1956C15.2625 17.3509 18.4573 20.6422 18.4573 24.6894C18.4562 24.7714 18.488 24.8505 18.5457 24.9088C18.6032 24.9673 18.6818 25 18.7638 25C18.8456 25 18.9242 24.9673 18.9819 24.9088C19.0394 24.8505 19.0712 24.7714 19.0699 24.6894C19.0699 22.9725 18.535 21.3797 17.6233 20.0679C17.6239 20.0587 17.6246 20.0497 17.6246 20.0406C17.6246 17.0819 19.965 14.6765 22.8981 14.5718C22.9641 14.5753 23.0305 14.5772 23.0974 14.5772C23.1642 14.5772 23.2307 14.5753 23.2967 14.5718C26.2295 14.6765 28.5699 17.0817 28.5699 20.0406C28.5686 20.1224 28.6005 20.2014 28.6579 20.2599C28.7156 20.3183 28.794 20.3512 28.876 20.3512C28.9581 20.3512 29.0367 20.3183 29.0941 20.2599C29.1518 20.2014 29.1834 20.1224 29.1824 20.0406C29.1824 17.2635 27.3147 14.9164 24.769 14.189C26.0251 13.5706 26.8917 12.2782 26.8917 10.786C26.8917 8.69424 25.1888 6.99117 23.0971 6.99117ZM23.0971 7.60361C24.8577 7.60361 26.279 9.02482 26.279 10.7855C26.279 12.4817 24.9605 13.8595 23.2896 13.9585C23.2257 13.9563 23.1614 13.9553 23.0971 13.9553C23.0326 13.9553 22.9685 13.9565 22.9046 13.9585C21.2339 13.8596 19.9182 12.4819 19.9182 10.7855C19.9182 9.02444 21.3362 7.60361 23.0971 7.60361ZM10.9576 7.78434C13.3952 7.78434 15.3614 9.75351 15.3614 12.1881C15.3614 14.5256 13.5488 16.4336 11.2471 16.5823C11.1509 16.5789 11.0546 16.5768 10.9576 16.5768C10.8608 16.5768 10.7645 16.5798 10.6686 16.5823C8.3696 16.4337 6.55677 14.5256 6.55677 12.1881C6.55677 9.75346 8.52317 7.78434 10.9576 7.78434Z" fill="#033EB2" stroke="#033EB2"/>
</svg>
