<svg width="32" height="32" viewBox="0 0 32 32" fill="none" xmlns="http://www.w3.org/2000/svg">
<path d="M7.2 4C5.43512 4 4 5.43552 4 7.2C4 8.96448 5.43512 10.4 7.2 10.4C8.96488 10.4 10.4 8.96448 10.4 7.2C10.4 5.43552 8.96488 4 7.2 4ZM7.2 8.8C6.318 8.8 5.6 8.0824 5.6 7.2C5.6 6.3176 6.318 5.6 7.2 5.6C8.082 5.6 8.8 6.3176 8.8 7.2C8.8 8.0824 8.082 8.8 7.2 8.8ZM7.2 12.8C5.43512 12.8 4 14.2355 4 16C4 17.7645 5.43512 19.2 7.2 19.2C8.96488 19.2 10.4 17.7645 10.4 16C10.4 14.2355 8.96488 12.8 7.2 12.8ZM7.2 17.6C6.318 17.6 5.6 16.8824 5.6 16C5.6 15.1176 6.318 14.4 7.2 14.4C8.082 14.4 8.8 15.1176 8.8 16C8.8 16.8824 8.082 17.6 7.2 17.6ZM7.2 21.6C5.43512 21.6 4 23.0355 4 24.8C4 26.5645 5.43512 28 7.2 28C8.96488 28 10.4 26.5645 10.4 24.8C10.4 23.0355 8.96488 21.6 7.2 21.6ZM7.2 26.4C6.318 26.4 5.6 25.6824 5.6 24.8C5.6 23.9176 6.318 23.2 7.2 23.2C8.082 23.2 8.8 23.9176 8.8 24.8C8.8 25.6824 8.082 26.4 7.2 26.4ZM12.8 8H27.2C27.6422 8 28 7.64176 28 7.2C28 6.75824 27.6422 6.4 27.2 6.4H12.8C12.3578 6.4 12 6.75824 12 7.2C12 7.64176 12.3578 8 12.8 8ZM27.2 15.2H12.8C12.3578 15.2 12 15.5582 12 16C12 16.4418 12.3578 16.8 12.8 16.8H27.2C27.6422 16.8 28 16.4418 28 16C28 15.5582 27.6422 15.2 27.2 15.2ZM27.2 24H12.8C12.3578 24 12 24.3582 12 24.8C12 25.2418 12.3578 25.6 12.8 25.6H27.2C27.6422 25.6 28 25.2418 28 24.8C28 24.3582 27.6422 24 27.2 24Z" fill="#033EB2"/>
</svg>
