<svg width="25" height="25" viewBox="0 0 25 25" fill="none" xmlns="http://www.w3.org/2000/svg">
<path d="M12.1914 15.0789V17.0789M6.19141 21.0789H18.1914C18.7218 21.0789 19.2305 20.8681 19.6056 20.4931C19.9807 20.118 20.1914 19.6093 20.1914 19.0789V13.0789C20.1914 12.5484 19.9807 12.0397 19.6056 11.6646C19.2305 11.2896 18.7218 11.0789 18.1914 11.0789H6.19141C5.66097 11.0789 5.15227 11.2896 4.77719 11.6646C4.40212 12.0397 4.19141 12.5484 4.19141 13.0789V19.0789C4.19141 19.6093 4.40212 20.118 4.77719 20.4931C5.15227 20.8681 5.66097 21.0789 6.19141 21.0789ZM16.1914 11.0789V7.07886C16.1914 6.01799 15.77 5.00058 15.0198 4.25043C14.2697 3.50028 13.2523 3.07886 12.1914 3.07886C11.1305 3.07886 10.1131 3.50028 9.36298 4.25043C8.61283 5.00058 8.19141 6.01799 8.19141 7.07886V11.0789H16.1914Z" stroke="#7B7B7B" stroke-width="2" stroke-linecap="round" stroke-linejoin="round"/>
</svg>
