<svg width="22" height="22" viewBox="0 0 22 22" fill="none" xmlns="http://www.w3.org/2000/svg">
<mask id="mask0_815_1467" style="mask-type:alpha" maskUnits="userSpaceOnUse" x="0" y="0" width="22" height="22">
<rect width="22" height="22" fill="#C4C4C4"/>
</mask>
<g mask="url(#mask0_815_1467)">
<path d="M8.36488 10.5418H16.0649L13.842 8.31891L14.7815 7.31058L18.7003 11.2293L14.7815 15.1481L13.842 14.1397L16.0649 11.9168H8.36488V10.5418ZM11.1149 3.2085V4.5835H4.95029C4.88918 4.5835 4.82807 4.61405 4.76696 4.67516C4.70585 4.73627 4.67529 4.79739 4.67529 4.8585V17.6002C4.67529 17.6613 4.70585 17.7224 4.76696 17.7835C4.82807 17.8446 4.88918 17.8752 4.95029 17.8752H11.1149V19.2502H4.95029C4.49196 19.2502 4.10238 19.0897 3.78154 18.7689C3.46071 18.4481 3.30029 18.0585 3.30029 17.6002V4.8585C3.30029 4.40016 3.46071 4.01058 3.78154 3.68975C4.10238 3.36891 4.49196 3.2085 4.95029 3.2085H11.1149Z" fill="black"/>
</g>
</svg>
