<svg width="30" height="30" viewBox="0 0 30 30" fill="none" xmlns="http://www.w3.org/2000/svg">
<circle cx="15" cy="15" r="15" fill="url(#paint0_linear_245_832)"/>
<path d="M20.7698 22.5H20.6718C9.33943 21.8481 7.73041 12.2827 7.50549 9.36346C7.48737 9.13649 7.51419 8.90817 7.58443 8.69158C7.65467 8.475 7.76693 8.27441 7.91479 8.1013C8.06266 7.92819 8.24321 7.78597 8.44611 7.68279C8.64902 7.57961 8.87027 7.51749 9.09721 7.5H12.2749C12.5059 7.49978 12.7316 7.56895 12.9229 7.69856C13.1142 7.82816 13.2621 8.01223 13.3476 8.22692L14.2242 10.3846C14.3086 10.5944 14.3295 10.8243 14.2844 11.0458C14.2393 11.2674 14.1301 11.4708 13.9704 11.6308L12.742 12.8712C12.9339 13.962 13.4561 14.9675 14.238 15.7517C15.0198 16.5359 16.0236 17.0609 17.1135 17.2558L18.365 16.0154C18.5273 15.8574 18.7325 15.7507 18.9551 15.7087C19.1776 15.6666 19.4076 15.691 19.6164 15.7788L21.7906 16.65C22.002 16.7382 22.1823 16.8874 22.3087 17.0785C22.435 17.2696 22.5016 17.494 22.5 17.7231V20.7692C22.5 21.2283 22.3177 21.6685 21.9932 21.9931C21.6688 22.3177 21.2287 22.5 20.7698 22.5ZM9.23563 8.65385C9.08267 8.65385 8.93598 8.71463 8.82783 8.82282C8.71967 8.93102 8.65891 9.07776 8.65891 9.23077V9.27692C8.9242 12.6923 10.6255 20.7692 20.7352 21.3462C20.811 21.3508 20.8869 21.3405 20.9587 21.3158C21.0305 21.291 21.0967 21.2524 21.1535 21.202C21.2102 21.1516 21.2565 21.0905 21.2897 21.0222C21.3228 20.9538 21.3421 20.8797 21.3466 20.8038V17.7231L19.1724 16.8519L17.5172 18.4962L17.2404 18.4615C12.223 17.8327 11.5425 12.8135 11.5425 12.7615L11.5079 12.4846L13.1457 10.8288L12.2807 8.65385H9.23563Z" fill="white"/>
<defs>
<linearGradient id="paint0_linear_245_832" x1="34.5" y1="3" x2="-3.12993" y2="9.84779" gradientUnits="userSpaceOnUse">
<stop stop-color="#6EFA57"/>
<stop offset="1" stop-color="#31CD41"/>
</linearGradient>
</defs>
</svg>
