<svg width="32" height="32" viewBox="0 0 32 32" fill="none" xmlns="http://www.w3.org/2000/svg">
<g clip-path="url(#clip0_295_1103)">
<path d="M14.289 22.4727H7.23275C6.95204 22.4727 6.68282 22.3876 6.48432 22.2362C6.28583 22.0848 6.17432 21.8794 6.17432 21.6653C6.17432 21.4511 6.28583 21.2458 6.48432 21.0943C6.68282 20.9429 6.95204 20.8579 7.23275 20.8579H14.289C14.5697 20.8579 14.8389 20.9429 15.0374 21.0943C15.2359 21.2458 15.3474 21.4511 15.3474 21.6653C15.3474 21.8794 15.2359 22.0848 15.0374 22.2362C14.8389 22.3876 14.5697 22.4727 14.289 22.4727V22.4727ZM17.8171 17.09H7.23275C6.95204 17.09 6.68282 17.0049 6.48432 16.8535C6.28583 16.7021 6.17432 16.4967 6.17432 16.2826C6.17432 16.0685 6.28583 15.8631 6.48432 15.7117C6.68282 15.5603 6.95204 15.4752 7.23275 15.4752H17.8171C18.0978 15.4752 18.367 15.5603 18.5655 15.7117C18.764 15.8631 18.8755 16.0685 18.8755 16.2826C18.8755 16.4967 18.764 16.7021 18.5655 16.8535C18.367 17.0049 18.0978 17.09 17.8171 17.09V17.09ZM21.3452 11.7073H7.23275C6.95204 11.7073 6.68282 11.6223 6.48432 11.4708C6.28583 11.3194 6.17432 11.1141 6.17432 10.8999C6.17432 10.6858 6.28583 10.4804 6.48432 10.329C6.68282 10.1776 6.95204 10.0925 7.23275 10.0925H21.3452C21.6259 10.0925 21.8951 10.1776 22.0936 10.329C22.2921 10.4804 22.4036 10.6858 22.4036 10.8999C22.4036 11.1141 22.2921 11.3194 22.0936 11.4708C21.8951 11.6223 21.6259 11.7073 21.3452 11.7073V11.7073ZM19.5812 5.65181C19.4408 5.65557 19.301 5.63726 19.1704 5.59801C19.0397 5.55876 18.921 5.49943 18.8218 5.42369C18.7225 5.34795 18.6447 5.25744 18.5932 5.15778C18.5418 5.05812 18.5178 4.95145 18.5227 4.84441V0.807401C18.5227 0.593265 18.6342 0.387899 18.8327 0.236482C19.0312 0.0850653 19.3004 0 19.5812 0C19.8619 0 20.1311 0.0850653 20.3296 0.236482C20.5281 0.387899 20.6396 0.593265 20.6396 0.807401V4.84441C20.6445 4.95145 20.6205 5.05812 20.5691 5.15778C20.5176 5.25744 20.4398 5.34795 20.3405 5.42369C20.2413 5.49943 20.1226 5.55876 19.992 5.59801C19.8613 5.63726 19.7215 5.65557 19.5812 5.65181V5.65181ZM8.99681 5.65181C8.85649 5.65557 8.71665 5.63726 8.58601 5.59801C8.45536 5.55876 8.3367 5.49943 8.23742 5.42369C8.13813 5.34795 8.06035 5.25744 8.0089 5.15778C7.95745 5.05812 7.93344 4.95145 7.93837 4.84441V0.807401C7.93837 0.593265 8.04989 0.387899 8.24838 0.236482C8.44688 0.0850653 8.71609 0 8.99681 0C9.27752 0 9.54674 0.0850653 9.74523 0.236482C9.94373 0.387899 10.0552 0.593265 10.0552 0.807401V4.84441C10.0602 4.95145 10.0362 5.05812 9.98472 5.15778C9.93327 5.25744 9.85548 5.34795 9.7562 5.42369C9.65691 5.49943 9.53826 5.55876 9.40761 5.59801C9.27697 5.63726 9.13713 5.65557 8.99681 5.65181V5.65181Z" fill="#D80005"/>
<path d="M14.7122 26.9134H2.82249C2.63535 26.9134 2.45587 26.8567 2.32354 26.7557C2.19121 26.6548 2.11687 26.5179 2.11687 26.3751V4.84441C2.11687 4.70166 2.19121 4.56475 2.32354 4.4638C2.45587 4.36286 2.63535 4.30615 2.82249 4.30615H25.7552C25.9424 4.30615 26.1219 4.36286 26.2542 4.4638C26.3865 4.56475 26.4609 4.70166 26.4609 4.84441V21.6922H26.6373C27.0588 21.6836 27.4784 21.7385 27.8721 21.8537C28.129 21.9309 28.3675 22.04 28.5777 22.1766V4.84441C28.5777 4.27339 28.2804 3.72574 27.751 3.32196C27.2217 2.91819 26.5038 2.69135 25.7552 2.69135H2.82249C2.07392 2.69135 1.35601 2.91819 0.826688 3.32196C0.297368 3.72574 0 4.27339 0 4.84441V26.3751C0 26.9461 0.297368 27.4938 0.826688 27.8976C1.35601 28.3013 2.07392 28.5282 2.82249 28.5282H15.9824L14.7122 26.9134Z" fill="#D80005"/>
<path d="M21.0274 18.1668C21.2707 18.1668 21.5041 18.2405 21.6761 18.3717C21.8481 18.503 21.9448 18.681 21.9448 18.8665V24.626C21.9448 24.7473 22.0079 24.8637 22.1204 24.9495C22.2329 25.0353 22.3855 25.0835 22.5445 25.0835C22.7009 25.0771 22.8485 25.0268 22.9592 24.9423C23.0699 24.8579 23.1358 24.7452 23.1443 24.626V22.3384C23.4725 22.3087 23.804 22.3087 24.1322 22.3384C24.388 22.3475 24.6393 22.3931 24.8731 22.4729C24.8731 22.4729 24.8731 22.4729 24.8731 22.769V24.626C24.8816 24.7452 24.9475 24.8579 25.0582 24.9423C25.1689 25.0268 25.3165 25.0771 25.4729 25.0835C25.6354 25.0837 25.7918 25.0364 25.9099 24.9513C26.028 24.8662 26.0989 24.7498 26.1079 24.626V23.1727C26.399 23.1277 26.6989 23.1277 26.99 23.1727C27.2136 23.2751 27.4061 23.4127 27.5545 23.5764L27.8014 23.8186V25.0297C27.8099 25.1489 27.8758 25.2616 27.9865 25.3461C28.0972 25.4305 28.2449 25.4808 28.4012 25.4872C28.5603 25.4872 28.7128 25.439 28.8253 25.3532C28.9378 25.2674 29.001 25.151 29.001 25.0297V24.1685H29.4244C29.7425 24.1685 30.0476 24.2649 30.2726 24.4365C30.4975 24.6081 30.6239 24.8408 30.6239 25.0835V25.0835L30.3064 27.5865C30.2691 27.9099 30.1364 28.2227 29.9183 28.5015L28.2248 30.7623C28.1685 30.832 28.091 30.8904 27.9989 30.9326C27.9068 30.9747 27.8028 30.9994 27.6956 31.0045H20.2513C20.1398 30.9991 20.0322 30.9713 19.9393 30.9241C19.8464 30.8768 19.7714 30.8117 19.722 30.7353L18.2402 28.4746L15.2061 24.6798C15.1264 24.5719 15.104 24.4449 15.1434 24.3247C15.1828 24.2046 15.2809 24.1005 15.4177 24.0339C15.5234 23.9706 15.6539 23.9362 15.7882 23.9362C15.9225 23.9362 16.053 23.9706 16.1586 24.0339L19.087 26.2408C19.14 26.2866 19.2051 26.3233 19.2781 26.3485C19.3511 26.3736 19.4303 26.3866 19.5104 26.3866C19.5904 26.3866 19.6696 26.3736 19.7426 26.3485C19.8156 26.3233 19.8808 26.2866 19.9337 26.2408C19.9977 26.2035 20.0477 26.154 20.0787 26.0974C20.1096 26.0407 20.1205 25.9788 20.1101 25.9178V18.8665C20.1101 18.681 20.2068 18.503 20.3788 18.3717C20.5508 18.2405 20.7842 18.1668 21.0274 18.1668V18.1668ZM23.1443 21.3695V18.8665C23.1443 18.4383 22.9213 18.0275 22.5243 17.7247C22.1273 17.4219 21.5889 17.2517 21.0274 17.2517C20.466 17.2517 19.9276 17.4219 19.5306 17.7247C19.1336 18.0275 18.9106 18.4383 18.9106 18.8665V25.0297L17.0407 23.5764C16.87 23.4446 16.6668 23.3399 16.4427 23.2685C16.2186 23.197 15.9781 23.1602 15.7353 23.1602C15.4924 23.1602 15.252 23.197 15.0279 23.2685C14.8038 23.3399 14.6005 23.4446 14.4299 23.5764C14.1384 23.793 13.9518 24.0786 13.9006 24.3865C13.8493 24.6945 13.9364 25.0066 14.1476 25.2719L17.1818 29.0936L18.6283 31.3274C18.7781 31.5591 19.0089 31.7546 19.2954 31.8924C19.5818 32.0302 19.9127 32.1047 20.2513 32.1079H27.872C28.1946 32.1106 28.5121 32.047 28.7914 31.9239C29.0707 31.8008 29.3015 31.6227 29.4596 31.4082L31.1531 29.1474C31.4346 28.7557 31.6143 28.3262 31.6824 27.8825L31.9999 25.3796C32.034 25.139 32.0053 24.8957 31.9154 24.6636C31.8254 24.4316 31.6761 24.2155 31.4759 24.0278C31.2758 23.84 31.0288 23.6845 30.7494 23.57C30.4699 23.4556 30.1634 23.3846 29.8477 23.3611H28.8951L28.6482 23.1458C28.403 22.8054 28.0359 22.5254 27.5897 22.3384C27.1369 22.2599 26.6667 22.2599 26.2138 22.3384H26.0374C25.9059 22.0899 25.6702 21.8816 25.367 21.7463C25.0931 21.6222 24.7955 21.5314 24.485 21.4771C24.0632 21.4372 23.6366 21.4372 23.2149 21.4771L23.1443 21.3695Z" fill="#D80005"/>
</g>
<defs>
<clipPath id="clip0_295_1103">
<rect width="32" height="32" fill="white"/>
</clipPath>
</defs>
</svg>
