<svg width="32" height="32" viewBox="0 0 32 32" fill="none" xmlns="http://www.w3.org/2000/svg">
<path d="M20.7732 15.9999C20.7732 18.6399 18.6399 20.7732 15.9999 20.7732C13.3599 20.7732 11.2266 18.6399 11.2266 15.9999C11.2266 13.3599 13.3599 11.2266 15.9999 11.2266C18.6399 11.2266 20.7732 13.3599 20.7732 15.9999Z" stroke="#D80005" stroke-width="2" stroke-linecap="round" stroke-linejoin="round"/>
<path d="M16 27.0266C20.7067 27.0266 25.0934 24.2533 28.1467 19.4533C29.3467 17.5733 29.3467 14.4133 28.1467 12.5333C25.0934 7.73329 20.7067 4.95996 16 4.95996C11.2934 4.95996 6.9067 7.73329 3.85337 12.5333C2.65337 14.4133 2.65337 17.5733 3.85337 19.4533C6.9067 24.2533 11.2934 27.0266 16 27.0266Z" stroke="#D80005" stroke-width="2" stroke-linecap="round" stroke-linejoin="round"/>
</svg>
