<svg width="32" height="32" viewBox="0 0 32 32" fill="none" xmlns="http://www.w3.org/2000/svg">
<g clip-path="url(#clip0_295_1113)">
<path d="M28.7986 16C28.7947 12.6064 27.4449 9.3529 25.0453 6.95327C22.6457 4.55365 19.3922 3.20383 15.9986 3.19995C13.9767 3.20285 11.984 3.68376 10.1834 4.60346C8.38267 5.52315 6.82494 6.85556 5.63728 8.49195V4.41862C5.63728 4.09541 5.50889 3.78543 5.28035 3.55689C5.0518 3.32835 4.74183 3.19995 4.41862 3.19995C4.09541 3.19995 3.78543 3.32835 3.55689 3.55689C3.32835 3.78543 3.19995 4.09541 3.19995 4.41862V10.952C3.19995 11.4824 3.41066 11.9911 3.78574 12.3662C4.16081 12.7412 4.66952 12.952 5.19995 12.952H11.7333C12.0565 12.952 12.3665 12.8236 12.595 12.595C12.8236 12.3665 12.952 12.0565 12.952 11.7333C12.952 11.4101 12.8236 11.1001 12.595 10.8716C12.3665 10.643 12.0565 10.5146 11.7333 10.5146H7.21062C8.1433 9.02448 9.43895 7.79545 10.9762 6.94264C12.5134 6.08983 14.242 5.64115 16 5.63862C18.7472 5.64179 21.381 6.73463 23.3235 8.67736C25.266 10.6201 26.3585 13.254 26.3613 16.0013C26.3581 18.7483 25.2655 21.3819 23.323 23.3243C21.3806 25.2668 18.747 26.3594 16 26.3626C13.847 26.3621 11.7475 25.6914 9.99292 24.4438C8.23829 23.1962 6.91546 21.4334 6.20795 19.4C6.15565 19.2487 6.07403 19.1092 5.96775 18.9895C5.86148 18.8697 5.73263 18.7722 5.5886 18.7023C5.44456 18.6325 5.28816 18.5917 5.12835 18.5824C4.96855 18.5731 4.80847 18.5953 4.65728 18.648C4.35194 18.7539 4.10117 18.9767 3.96015 19.2675C3.81912 19.5583 3.79939 19.8933 3.90528 20.1986C4.77903 22.7101 6.41267 24.8875 8.57963 26.4287C10.7466 27.97 13.3395 28.7987 15.9986 28.8C19.3922 28.7961 22.6457 27.4463 25.0453 25.0466C27.4449 22.647 28.7947 19.3935 28.7986 16ZM14.0186 20.0759L16.8466 17.2479C16.9374 17.1571 17.0131 17.0522 17.0706 16.9373C17.152 16.7713 17.194 16.5888 17.1933 16.404V9.19995C17.1933 8.88169 17.0669 8.57647 16.8418 8.35142C16.6168 8.12638 16.3115 7.99995 15.9933 7.99995C15.675 7.99995 15.3698 8.12638 15.1448 8.35142C14.9197 8.57647 14.7933 8.88169 14.7933 9.19995V15.9026L12.316 18.3786C12.2045 18.4901 12.1161 18.6224 12.0557 18.768C11.9954 18.9136 11.9643 19.0697 11.9643 19.2273C11.9643 19.3849 11.9954 19.541 12.0557 19.6866C12.1161 19.8322 12.2045 19.9645 12.316 20.0759C12.5408 20.3011 12.8458 20.4277 13.164 20.4279C13.3225 20.4289 13.4797 20.3983 13.6264 20.3382C13.7731 20.278 13.9064 20.188 14.0186 20.0759Z" fill="#033EB2"/>
</g>
<defs>
<clipPath id="clip0_295_1113">
<rect width="32" height="32" fill="white"/>
</clipPath>
</defs>
</svg>
