<svg width="32" height="32" viewBox="0 0 32 32" fill="none" xmlns="http://www.w3.org/2000/svg">
<path d="M4.38299 16.0973L0 17.847L4.17017 29L8.55315 27.2443L8.19653 26.2921L9.08809 25.941L18.2912 28.2501C19.2104 28.4825 20.1765 28.416 21.0579 28.0597L30.3473 24.34C30.9903 24.0788 31.5067 23.564 31.7828 22.9088C32.059 22.2537 32.0723 21.5119 31.8198 20.8466C31.5673 20.1812 31.0698 19.647 30.4366 19.3612C29.8034 19.0755 29.0864 19.0618 28.4434 19.323L23.468 21.3048L23.4277 21.1798C23.2585 20.6648 22.9823 20.1945 22.6186 19.8017C22.2549 19.4089 21.8125 19.1033 21.3225 18.9064L12.1194 15.2701C11.2181 14.91 10.2195 14.91 9.31816 15.2701L4.74536 17.1031L4.38299 16.0973ZM8.98455 24.584L7.73638 25.084L5.20552 18.3172L9.80708 16.4842C10.4183 16.2429 11.094 16.2429 11.7052 16.4842L20.9083 20.1264C21.2265 20.2518 21.5139 20.4487 21.7496 20.7029C21.9854 20.9571 22.1636 21.2623 22.2716 21.5964L22.3291 21.775L22.076 21.8761C21.3152 22.1844 20.4735 22.2034 19.7004 21.9297L13.6896 19.817L13.287 21.0489L19.2863 23.1557C20.339 23.5222 21.4823 23.4969 22.5189 23.0843L22.7145 23.001L23.3299 22.757L28.8978 20.5133C29.0638 20.4364 29.2431 20.3953 29.4249 20.3924C29.6067 20.3896 29.7871 20.425 29.9552 20.4966C30.1234 20.5681 30.2757 20.6743 30.4029 20.8088C30.5301 20.9432 30.6295 21.1029 30.6952 21.2784C30.7608 21.4538 30.7913 21.6412 30.7847 21.8292C30.7781 22.0172 30.7346 22.2018 30.6569 22.3719C30.5791 22.5419 30.4687 22.6938 30.3325 22.8184C30.1962 22.9429 30.0368 23.0374 29.8641 23.0962L20.592 26.8277C19.9479 27.0836 19.2439 27.1313 18.5731 26.9646L8.98455 24.584Z" fill="#D80005"/>
<path d="M22.0075 3.52164e-06C20.4249 -0.00148107 18.8775 0.466449 17.5609 1.3446C16.2443 2.22274 15.2178 3.47165 14.6111 4.93333C14.0045 6.39501 13.845 8.00378 14.1528 9.55612C14.4606 11.1085 15.222 12.5346 16.3405 13.6542C17.459 14.7738 18.8845 15.5364 20.4365 15.8457C21.9886 16.155 23.5975 15.997 25.0597 15.3918C26.522 14.7865 27.7719 13.7611 28.6512 12.4453C29.5306 11.1296 30 9.58257 30 8C29.998 5.88018 29.1556 3.84764 27.6573 2.34799C26.1591 0.848345 24.1273 0.00397602 22.0075 3.52164e-06ZM22.0075 14.9644C20.6298 14.9658 19.2825 14.5586 18.1363 13.7943C16.99 13.0299 16.0962 11.9428 15.5679 10.6703C15.0397 9.39791 14.9007 7.99738 15.1686 6.64593C15.4364 5.29448 16.0991 4.05285 17.0728 3.07812C18.0465 2.10339 19.2874 1.43935 20.6386 1.17002C21.9897 0.900693 23.3904 1.03817 24.6634 1.56507C25.9364 2.09196 27.0245 2.98459 27.7901 4.13004C28.5557 5.27548 28.9644 6.62226 28.9644 8C28.9624 9.84515 28.229 11.6143 26.925 12.9197C25.621 14.2251 23.8527 14.9604 22.0075 14.9644Z" fill="#D80005"/>
<path d="M22.3352 6.66594V3.77368C22.6486 3.84668 22.947 3.96887 23.2181 4.13521C23.5069 4.32643 23.7506 4.57268 23.9336 4.85828C24.1446 5.1846 24.306 5.53756 24.4132 5.90672H24.6796V4.02675C23.9626 3.62686 23.1626 3.38012 22.3352 3.30369V3H21.7415V3.30369C20.9805 3.34832 20.2571 3.63337 19.6863 4.11352C19.4708 4.30554 19.2989 4.53735 19.1811 4.79472C19.0633 5.0521 19.0021 5.32962 19.0013 5.61027C18.9826 6.12334 19.1735 6.62339 19.5341 7.00578C20.1933 7.61845 20.9326 8.14821 21.7338 8.58207V11.7997C21.3449 11.7771 20.9645 11.6813 20.6149 11.5177C20.3016 11.3667 20.0383 11.1365 19.8538 10.8525C19.6326 10.4967 19.4854 10.104 19.4199 9.69559H19.1307V11.7997C19.5476 11.9553 19.978 12.0763 20.417 12.1612C20.8438 12.2368 21.2769 12.2755 21.711 12.2769V13H22.3047V12.2408C23.0442 12.213 23.7478 11.9302 24.2838 11.4454C24.518 11.223 24.7022 10.9577 24.8252 10.6656C24.9482 10.3735 25.0074 10.0607 24.9993 9.7462C25.011 9.16165 24.7971 8.59324 24.3979 8.14823C23.7752 7.57759 23.0827 7.07994 22.3352 6.66594ZM21.7415 6.28272C21.3403 6.06344 20.9823 5.77964 20.6834 5.44396C20.591 5.33663 20.5237 5.21181 20.486 5.07783C20.4483 4.94386 20.4411 4.80379 20.4649 4.66696C20.4887 4.53013 20.5429 4.39968 20.6238 4.2843C20.7048 4.16893 20.8108 4.07127 20.9346 3.99783C21.1729 3.84164 21.4523 3.75151 21.7415 3.73753V6.28272ZM23.2029 11.3442C22.9741 11.5811 22.6688 11.7388 22.3352 11.7925V8.97252C22.6791 9.19408 22.9825 9.46764 23.2333 9.78236C23.3902 10.013 23.4747 10.2814 23.4769 10.556C23.4871 10.8413 23.39 11.1208 23.2029 11.3442Z" fill="#D80005"/>
</svg>
