<svg width="32" height="32" viewBox="0 0 32 32" fill="none" xmlns="http://www.w3.org/2000/svg">
<g clip-path="url(#clip0_518_673)">
<path d="M15.9997 2.06989H15.9999C23.6809 2.06989 29.9299 8.3189 29.9299 15.9999C29.9299 23.6809 23.6809 29.9299 15.9999 29.9299C8.31892 29.9299 2.06994 23.6809 2.06989 16C2.07111 13.9476 2.52581 11.9208 3.40149 10.0646C3.97771 8.84314 4.72685 7.7154 5.62293 6.71479C5.85939 6.45075 6.1713 6.4137 6.42693 6.52558C6.68512 6.63858 6.88989 6.90619 6.88989 7.26815V8.95989C6.88989 9.3962 7.24359 9.74989 7.67989 9.74989C8.1162 9.74989 8.46989 9.3962 8.46989 8.95989V4.19989C8.46989 3.56477 7.95502 3.04989 7.31989 3.04989H2.55989C2.12359 3.04989 1.76989 3.40359 1.76989 3.83989C1.76989 4.2762 2.12359 4.62989 2.55989 4.62989H3.19504C3.5831 4.62989 3.88509 4.87962 4.0291 5.22404C4.1736 5.56964 4.14819 5.9877 3.89957 6.2978C3.0864 7.31206 2.40172 8.42729 1.86392 9.61858C0.958518 11.6242 0.490141 13.7994 0.489893 15.9999V15.9999C0.489893 24.5519 7.44793 31.5099 15.9999 31.5099C24.5519 31.5099 31.5099 24.5519 31.5099 15.9999C31.5099 7.44793 24.5519 0.489893 15.9999 0.489893C14.3619 0.489893 12.7558 0.742619 11.2156 1.24197C10.7942 1.37859 10.5881 1.83964 10.7393 2.24713C10.8917 2.65766 11.3443 2.85967 11.7531 2.72899C13.1246 2.29054 14.5572 2.06779 15.9997 2.06989Z" fill="#D80005" stroke="#D80005" stroke-width="0.3" stroke-linejoin="round"/>
<path d="M17.1411 13.2859H12.7318C12.6374 13.2859 12.5439 13.3041 12.4565 13.3395C12.3692 13.375 12.2896 13.4271 12.2224 13.4929C12.1552 13.5587 12.1018 13.637 12.0653 13.7234C12.0288 13.8098 12.0099 13.9025 12.0099 13.9962C12.0099 14.0899 12.0288 14.1827 12.0653 14.2691C12.1018 14.3555 12.1552 14.4338 12.2224 14.4996L12.3274 14.3925L12.2224 14.4996C12.2896 14.5654 12.3692 14.6175 12.4565 14.6529C12.5439 14.6884 12.6374 14.7066 12.7318 14.7066H17.1269C16.9655 15.346 16.5996 15.9206 16.0796 16.3448C15.5118 16.808 14.7961 17.0624 14.0564 17.0634H12.7912H12.7911C12.6984 17.0634 12.6064 17.081 12.5203 17.1153L12.5203 17.1153L12.4825 17.1304C12.4824 17.1304 12.4824 17.1304 12.4824 17.1304C12.3737 17.1737 12.277 17.2425 12.2011 17.3312C12.1252 17.4198 12.0724 17.5256 12.0475 17.6393C12.0226 17.7531 12.0265 17.8711 12.0588 17.983C12.0911 18.0949 12.1508 18.197 12.2323 18.2806C12.2323 18.2806 12.2323 18.2806 12.2323 18.2806L17.4285 23.6115L17.5359 23.5068L17.4285 23.6115C17.561 23.7474 17.7425 23.8256 17.933 23.8299C18.1234 23.8342 18.3083 23.7642 18.4469 23.6345C18.5857 23.5046 18.6667 23.3254 18.6711 23.1361C18.6755 22.9467 18.603 22.764 18.4704 22.628L14.4171 18.4698C15.4032 18.3926 16.3415 18.0062 17.0903 17.3627C17.8917 16.6741 18.4245 15.7353 18.5997 14.7065H19.9081C20.0985 14.7065 20.2818 14.6324 20.4174 14.4995C20.5531 14.3665 20.6299 14.1855 20.6299 13.9962C20.6299 13.8068 20.5531 13.6258 20.4174 13.4928L20.3124 13.5999L20.4174 13.4928C20.2818 13.3599 20.0985 13.2858 19.9081 13.2858H18.6092C18.4678 12.3777 18.0473 11.5357 17.4074 10.8708H19.9081C20.0985 10.8708 20.2818 10.7967 20.4174 10.6638L20.3124 10.5567L20.4174 10.6638C20.5531 10.5308 20.6299 10.3498 20.6299 10.1604C20.6299 9.97106 20.5531 9.79005 20.4174 9.65708L20.313 9.76367L20.4174 9.65708C20.2818 9.52421 20.0985 9.4501 19.9081 9.4501H12.7318C12.5414 9.4501 12.3581 9.52421 12.2225 9.65708C12.0868 9.79005 12.01 9.97106 12.01 10.1604C12.01 10.3498 12.0868 10.5308 12.2225 10.6638C12.3581 10.7967 12.5414 10.8708 12.7318 10.8708L14.0563 10.8708C14.0563 10.8708 14.0564 10.8708 14.0564 10.8708C14.806 10.8718 15.5307 11.1331 16.1017 11.6076C16.6262 12.0433 16.9899 12.633 17.1411 13.2859Z" fill="#D80005" stroke="#D80005" stroke-width="0.3"/>
</g>
<defs>
<clipPath id="clip0_518_673">
<rect width="32" height="32" fill="white"/>
</clipPath>
</defs>
</svg>
