<svg width="14" height="14" viewBox="0 0 14 14" fill="none" xmlns="http://www.w3.org/2000/svg">
<mask id="mask0_8_852" style="mask-type:alpha" maskUnits="userSpaceOnUse" x="0" y="0" width="14" height="14">
<rect width="14" height="14" fill="#C4C4C4"/>
</mask>
<g mask="url(#mask0_8_852)">
<path d="M7.00016 9.97467C8.05989 9.13856 8.85964 8.33648 9.39941 7.56842C9.9388 6.80037 10.2085 6.05662 10.2085 5.33717C10.2085 4.74412 10.0992 4.23604 9.88066 3.81292C9.66172 3.3902 9.3895 3.04759 9.064 2.78509C8.73811 2.52259 8.39044 2.33301 8.021 2.21634C7.65155 2.09967 7.31127 2.04134 7.00016 2.04134C6.68905 2.04134 6.34877 2.09967 5.97933 2.21634C5.60989 2.33301 5.26241 2.52259 4.93691 2.78509C4.61102 3.04759 4.33861 3.3902 4.11966 3.81292C3.90111 4.23604 3.79183 4.74412 3.79183 5.33717C3.79183 6.05662 4.06172 6.80037 4.6015 7.56842C5.14089 8.33648 5.94044 9.13856 7.00016 9.97467ZM7.00016 10.7184C5.72655 9.76565 4.77611 8.84204 4.14883 7.94759C3.52194 7.05315 3.2085 6.18301 3.2085 5.33717C3.2085 4.69551 3.32283 4.13395 3.5515 3.65251C3.77977 3.17145 4.0763 2.76798 4.44108 2.44209C4.80547 2.11659 5.21127 1.8712 5.6585 1.70592C6.10572 1.54065 6.55294 1.45801 7.00016 1.45801C7.44739 1.45801 7.89461 1.54065 8.34183 1.70592C8.78905 1.8712 9.19486 2.11659 9.55925 2.44209C9.92402 2.76798 10.2207 3.17145 10.4494 3.65251C10.6777 4.13395 10.7918 4.69551 10.7918 5.33717C10.7918 6.18301 10.4782 7.05315 9.85091 7.94759C9.22402 8.84204 8.27377 9.76565 7.00016 10.7184ZM7.00016 6.12467C7.24322 6.12467 7.44972 6.03951 7.61966 5.86917C7.79 5.69923 7.87516 5.49273 7.87516 5.24967C7.87516 5.00662 7.79 4.80012 7.61966 4.63017C7.44972 4.45984 7.24322 4.37467 7.00016 4.37467C6.75711 4.37467 6.55061 4.45984 6.38066 4.63017C6.21033 4.80012 6.12516 5.00662 6.12516 5.24967C6.12516 5.49273 6.21033 5.69923 6.38066 5.86917C6.55061 6.03951 6.75711 6.12467 7.00016 6.12467ZM3.2085 12.5413V11.958H10.7918V12.5413H3.2085Z" fill="#033EB2"/>
</g>
</svg>
