<svg width="60" height="60" viewBox="0 0 60 60" fill="none" xmlns="http://www.w3.org/2000/svg">
<path d="M30 55C43.8075 55 55 43.8075 55 30C55 16.1925 43.8075 5 30 5C16.1925 5 5 16.1925 5 30C5 43.8075 16.1925 55 30 55Z" fill="#E7E7E7"/>
<path d="M30.3 29.375C30.1008 29.35 29.8992 29.35 29.7 29.375C27.5799 29.3037 25.5705 28.411 24.0964 26.8855C22.6223 25.3601 21.7988 23.3213 21.8 21.2C21.8 16.675 25.45 13 30 13C32.1486 12.9963 34.2126 13.837 35.7471 15.341C37.2815 16.845 38.1635 18.8917 38.2029 21.04C38.2422 23.1882 37.4358 25.2659 35.9575 26.8251C34.4791 28.3842 32.4473 29.3 30.3 29.375ZM46.5 45.5C41.9057 49.7227 36.2401 52.4361 30 52.425C23.5 52.425 17.45 49.575 13 45.5C13.25 43.15 14.9 41.225 17.575 39.425C24.425 34.875 35.625 34.875 42.425 39.425C45.1 41.225 46.25 43.15 46.5 45.5Z" fill="white"/>
</svg>
