<svg width="24" height="24" viewBox="0 0 24 24" fill="none" xmlns="http://www.w3.org/2000/svg">
<path d="M13.3799 8.91016C13.3799 8.49596 13.0441 8.16016 12.6299 8.16016C12.2157 8.16016 11.8799 8.49596 11.8799 8.91016V10.1602H10.6299C10.2157 10.1602 9.87988 10.496 9.87988 10.9102C9.87988 11.3244 10.2157 11.6602 10.6299 11.6602H11.8799V12.9102C11.8799 13.3244 12.2157 13.6602 12.6299 13.6602C13.0441 13.6602 13.3799 13.3244 13.3799 12.9102V11.6602H14.6299C15.0441 11.6602 15.3799 11.3244 15.3799 10.9102C15.3799 10.496 15.0441 10.1602 14.6299 10.1602H13.3799V8.91016Z" fill="#D60005"/>
<path fill-rule="evenodd" clip-rule="evenodd" d="M3.62988 2.16016C3.21567 2.16016 2.87988 2.49594 2.87988 2.91015C2.87988 3.32436 3.21567 3.66015 3.62988 3.66015H3.84003C3.95578 3.66015 4.05641 3.73963 4.08322 3.85224L5.75403 10.8696L6.54343 14.3523C6.74995 15.2634 7.55971 15.9102 8.49394 15.9102H17.7658C18.7 15.9102 19.5098 15.2634 19.7163 14.3523L21.0763 8.35227C21.36 7.10105 20.4088 5.91015 19.1258 5.91015H6.11513L5.54244 3.50482C5.35474 2.71649 4.65039 2.16016 3.84003 2.16016H3.62988ZM7.8786 13.4572C7.88314 13.3849 7.87716 13.3106 7.8595 13.2364L7.21512 10.5301L6.50794 7.41015H19.1258C19.4466 7.41015 19.6843 7.70789 19.6134 8.02068L18.2534 14.0207C18.2018 14.2485 17.9994 14.4102 17.7658 14.4102H8.49394C8.26039 14.4102 8.05795 14.2485 8.00633 14.0207L7.8786 13.4572Z" fill="url(#paint0_linear_2966_320)"/>
<path fill-rule="evenodd" clip-rule="evenodd" d="M17.1299 21.9101C18.5106 21.9101 19.6299 20.7909 19.6299 19.4102C19.6299 18.0294 18.5106 16.9102 17.1299 16.9102C15.7492 16.9102 14.6299 18.0294 14.6299 19.4102C14.6299 20.7909 15.7492 21.9101 17.1299 21.9101ZM17.1299 20.4101C17.6822 20.4101 18.1299 19.9624 18.1299 19.4102C18.1299 18.8579 17.6822 18.4102 17.1299 18.4102C16.5776 18.4102 16.1299 18.8579 16.1299 19.4102C16.1299 19.9624 16.5776 20.4101 17.1299 20.4101Z" fill="url(#paint1_linear_2966_320)"/>
<path fill-rule="evenodd" clip-rule="evenodd" d="M11.6299 19.4102C11.6299 20.7909 10.5106 21.9101 9.12989 21.9101C7.74917 21.9101 6.62988 20.7909 6.62988 19.4102C6.62988 18.0294 7.74917 16.9102 9.12989 16.9102C10.5106 16.9102 11.6299 18.0294 11.6299 19.4102ZM10.1299 19.4102C10.1299 19.9624 9.68218 20.4101 9.12989 20.4101C8.5776 20.4101 8.12988 19.9624 8.12988 19.4102C8.12988 18.8579 8.5776 18.4102 9.12989 18.4102C9.68218 18.4102 10.1299 18.8579 10.1299 19.4102Z" fill="url(#paint2_linear_2966_320)"/>
<defs>
<linearGradient id="paint0_linear_2966_320" x1="3" y1="2.5" x2="21" y2="16" gradientUnits="userSpaceOnUse">
<stop stop-color="#D70005"/>
<stop offset="1" stop-color="#B40002"/>
</linearGradient>
<linearGradient id="paint1_linear_2966_320" x1="15" y1="17" x2="20" y2="22" gradientUnits="userSpaceOnUse">
<stop stop-color="#D60005"/>
<stop offset="1" stop-color="#BF0003"/>
</linearGradient>
<linearGradient id="paint2_linear_2966_320" x1="7" y1="17" x2="12" y2="22" gradientUnits="userSpaceOnUse">
<stop stop-color="#D40005"/>
<stop offset="1" stop-color="#B70002"/>
</linearGradient>
</defs>
</svg>
