<svg width="32" height="32" viewBox="0 0 32 32" fill="none" xmlns="http://www.w3.org/2000/svg">
<path d="M10 9C7.87827 9 5.84344 9.84285 4.34315 11.3431C2.84285 12.8434 2 14.8783 2 17C2 23.39 9.05 29.5 9.35 29.76C9.53113 29.9149 9.76165 30.0001 10 30.0001C10.2384 30.0001 10.4689 29.9149 10.65 29.76C11 29.5 18 23.39 18 17C18 14.8783 17.1571 12.8434 15.6569 11.3431C14.1566 9.84285 12.1217 9 10 9ZM10 27.64C8.33 26 4 21.43 4 17C4 15.4087 4.63214 13.8826 5.75736 12.7574C6.88258 11.6321 8.4087 11 10 11C11.5913 11 13.1174 11.6321 14.2426 12.7574C15.3679 13.8826 16 15.4087 16 17C16 21.43 11.67 26 10 27.64Z" fill="#033EB2"/>
<path d="M10 14C9.40666 14 8.82664 14.1759 8.33329 14.5056C7.83994 14.8352 7.45543 15.3038 7.22836 15.8519C7.0013 16.4001 6.94189 17.0033 7.05765 17.5853C7.1734 18.1672 7.45912 18.7018 7.87868 19.1213C8.29824 19.5409 8.83279 19.8266 9.41473 19.9424C9.99667 20.0581 10.5999 19.9987 11.1481 19.7716C11.6962 19.5446 12.1648 19.1601 12.4944 18.6667C12.8241 18.1734 13 17.5933 13 17C13 16.2043 12.6839 15.4413 12.1213 14.8787C11.5587 14.3161 10.7957 14 10 14ZM10 18C9.80222 18 9.60888 17.9413 9.44443 17.8315C9.27998 17.7216 9.15181 17.5654 9.07612 17.3827C9.00043 17.2 8.98063 16.9989 9.01922 16.8049C9.0578 16.6109 9.15304 16.4327 9.29289 16.2929C9.43275 16.153 9.61093 16.0578 9.80491 16.0192C9.99889 15.9806 10.2 16.0004 10.3827 16.0761C10.5654 16.1518 10.7216 16.28 10.8315 16.4444C10.9414 16.6089 11 16.8022 11 17C11 17.2652 10.8946 17.5196 10.7071 17.7071C10.5196 17.8946 10.2652 18 10 18ZM24 2.11C22.4369 2.08323 20.927 2.67796 19.802 3.76357C18.677 4.84917 18.0289 6.33689 18 7.9C18 12.1 22.44 16.09 23.24 16.78C23.3339 16.8898 23.4504 16.9779 23.5816 17.0383C23.7128 17.0988 23.8556 17.1301 24 17.1301C24.1444 17.1301 24.2872 17.0988 24.4184 17.0383C24.5496 16.9779 24.6661 16.8898 24.76 16.78C25.56 16.09 30 12.1 30 7.9C29.9711 6.33689 29.323 4.84917 28.198 3.76357C27.073 2.67796 25.5631 2.08323 24 2.11ZM24 14.76C22.73 13.56 20 10.66 20 7.9C20 6.83913 20.4214 5.82171 21.1716 5.07157C21.9217 4.32142 22.9391 3.9 24 3.9C25.0609 3.9 26.0783 4.32142 26.8284 5.07157C27.5786 5.82171 28 6.83913 28 7.9C28 10.66 25.27 13.56 24 14.76Z" fill="#033EB2"/>
<path d="M24 9.5C24.8284 9.5 25.5 8.82843 25.5 8C25.5 7.17157 24.8284 6.5 24 6.5C23.1716 6.5 22.5 7.17157 22.5 8C22.5 8.82843 23.1716 9.5 24 9.5Z" fill="#033EB2"/>
<path d="M17 28H15C14.7348 28 14.4804 28.1054 14.2929 28.2929C14.1054 28.4804 14 28.7348 14 29C14 29.2652 14.1054 29.5196 14.2929 29.7071C14.4804 29.8946 14.7348 30 15 30H17C17.2652 30 17.5196 29.8946 17.7071 29.7071C17.8946 29.5196 18 29.2652 18 29C18 28.7348 17.8946 28.4804 17.7071 28.2929C17.5196 28.1054 17.2652 28 17 28ZM28.24 27.57C27.8868 27.8487 27.4499 28.0002 27 28C26.7348 28 26.4804 28.1054 26.2929 28.2929C26.1054 28.4804 26 28.7348 26 29C26 29.2652 26.1054 29.5196 26.2929 29.7071C26.4804 29.8946 26.7348 30 27 30C27.8964 29.9982 28.7663 29.6953 29.47 29.14C29.6565 28.97 29.7718 28.7358 29.7929 28.4844C29.8139 28.233 29.7392 27.9829 29.5835 27.7842C29.4279 27.5856 29.203 27.4531 28.9538 27.4134C28.7046 27.3737 28.4497 27.4296 28.24 27.57ZM30.64 24.34C30.2656 23.5249 29.6282 22.8592 28.83 22.45C28.7127 22.3742 28.5809 22.3238 28.4429 22.3021C28.305 22.2803 28.164 22.2877 28.0291 22.3237C27.8942 22.3598 27.7683 22.4237 27.6596 22.5113C27.5508 22.599 27.4617 22.7084 27.3978 22.8326C27.334 22.9568 27.2969 23.093 27.2888 23.2324C27.2808 23.3718 27.3021 23.5114 27.3513 23.6421C27.4005 23.7728 27.4765 23.8917 27.5744 23.9913C27.6724 24.0908 27.7901 24.1687 27.92 24.22C28.323 24.4438 28.6397 24.7958 28.82 25.22C28.9003 25.3936 29.0288 25.5405 29.1901 25.6433C29.3513 25.7461 29.5387 25.8005 29.73 25.8C29.8747 25.799 30.0176 25.7683 30.15 25.71C30.2748 25.6554 30.3871 25.5758 30.4801 25.4762C30.5731 25.3766 30.6447 25.259 30.6906 25.1307C30.7364 25.0024 30.7556 24.8661 30.7469 24.7301C30.7382 24.5942 30.7018 24.4614 30.64 24.34ZM23 28H21C20.7348 28 20.4804 28.1054 20.2929 28.2929C20.1054 28.4804 20 28.7348 20 29C20 29.2652 20.1054 29.5196 20.2929 29.7071C20.4804 29.8946 20.7348 30 21 30H23C23.2652 30 23.5196 29.8946 23.7071 29.7071C23.8946 29.5196 24 29.2652 24 29C24 28.7348 23.8946 28.4804 23.7071 28.2929C23.5196 28.1054 23.2652 28 23 28ZM25 20.1C25 19.8348 24.8946 19.5804 24.7071 19.3929C24.5196 19.2054 24.2652 19.1 24 19.1C23.8644 19.0998 23.7301 19.1273 23.6054 19.1806C23.4807 19.234 23.3682 19.3121 23.2746 19.4103C23.1811 19.5086 23.1085 19.6248 23.0613 19.7519C23.0141 19.8791 22.9932 20.0145 23 20.15C23.0502 21.0495 23.4025 21.9057 24 22.58C24.0937 22.6867 24.2091 22.7722 24.3384 22.8308C24.4677 22.8894 24.608 22.9198 24.75 22.92C24.9918 22.9224 25.2262 22.8372 25.41 22.68C25.6101 22.5062 25.7331 22.2601 25.7518 21.9957C25.7706 21.7313 25.6836 21.4703 25.51 21.27C25.2129 20.9487 25.0332 20.5364 25 20.1Z" fill="#033EB2"/>
</svg>
