<svg width="86" height="86" viewBox="0 0 86 86" fill="none" xmlns="http://www.w3.org/2000/svg">
<g clip-path="url(#clip0_1194_2535)">
<path d="M42.6667 84.3333C65.6792 84.3333 84.3333 65.6792 84.3333 42.6667C84.3333 19.6542 65.6792 1 42.6667 1C19.6542 1 1 19.6542 1 42.6667C1 65.6792 19.6542 84.3333 42.6667 84.3333Z" stroke="#D80005" stroke-width="2" stroke-linecap="round" stroke-linejoin="round"/>
<path d="M68.746 35.6329C67.723 37.7544 66.4091 38.8852 64.8368 38.9929C64.4814 39.0144 64.1368 38.9821 63.803 38.9067C62.9953 38.7344 62.263 38.3037 61.6491 37.8191C61.3045 37.5391 60.9922 37.2375 60.7337 36.9575C59.5383 38.4437 58.246 39.1975 56.8891 39.1329C55.403 39.0791 54.2507 38.1314 53.5076 37.2698C52.4522 38.6052 51.2891 39.2837 50.0291 39.2837H49.9968C48.3707 39.2729 47.0891 38.1314 46.2814 37.1514C45.2907 38.3144 44.1707 38.9283 42.943 38.9714C41.2414 39.0144 39.8737 38.0129 38.9799 37.1191C37.9783 38.5729 36.826 39.3267 35.5337 39.3806C33.8322 39.4667 32.4537 38.2714 31.5599 37.2483C30.6553 38.5944 29.5783 39.316 28.3399 39.4129C28.243 39.4237 28.1568 39.4237 28.0599 39.4237C26.186 39.4237 24.603 37.9375 23.7414 36.9252C23.6445 36.9898 23.5476 37.0652 23.4399 37.1191C22.7614 37.5821 22.0183 37.9914 21.286 38.2606C20.2414 38.6375 19.1968 38.7129 18.3568 38.1421C16.4722 36.8606 17.3122 33.3821 17.4953 32.6929C17.5383 32.5529 17.603 32.4237 17.6999 32.3052L20.586 28.6975L21.3399 27.7498C21.706 27.276 22.3845 27.2006 22.8583 27.5775C23.3214 27.9437 23.3968 28.6221 23.0199 29.0852L22.6968 29.4944L19.5199 33.4683C19.2183 34.7391 19.2399 36.1391 19.5737 36.3652C19.5737 36.376 20.3599 36.796 23.3107 34.5775C23.5476 34.4052 23.8491 34.3298 24.1399 34.3837C24.4307 34.4267 24.6891 34.5991 24.8507 34.8467C25.2922 35.5144 26.8645 37.3775 28.1783 37.2698C29.1799 37.1837 29.966 35.8914 30.4507 34.8144C30.6122 34.4483 30.9676 34.2114 31.366 34.1898C31.8076 34.1683 32.1522 34.3621 32.3568 34.7175C32.7445 35.3744 34.1337 37.2267 35.4045 37.2267H35.4476C36.4599 37.1837 37.3107 35.8806 37.8491 34.7821C38.0107 34.4375 38.3553 34.2114 38.7322 34.1898C39.1307 34.1683 39.486 34.3406 39.7014 34.6529C40.1214 35.2667 41.4783 36.8175 42.8137 36.8175H42.8676C43.7291 36.7852 44.5583 36.0852 45.3553 34.7175C45.5491 34.3837 45.9153 34.2114 46.303 34.1791C46.6907 34.1898 47.046 34.4052 47.2291 34.7498C47.563 35.3637 48.8014 37.1191 50.0183 37.1298C50.5245 37.1298 51.0091 36.8175 51.4399 36.376C51.8707 35.9237 52.2368 35.3529 52.5383 34.8252C52.7322 34.4806 53.1199 34.2652 53.4968 34.276C53.6898 34.2784 53.8786 34.3327 54.0434 34.4331C54.2082 34.5335 54.343 34.6764 54.4337 34.8467C54.7137 35.3852 55.8014 36.9467 56.9645 36.9791H56.9968C58.0737 36.9791 59.086 35.6867 59.7537 34.6098C59.9476 34.2867 60.2814 34.0929 60.6583 34.0929H60.6691C61.0353 34.0929 61.3691 34.276 61.5737 34.5775C61.983 35.1914 63.4476 36.9252 64.6968 36.8498C65.4722 36.796 66.1183 35.9667 66.5707 35.1483C65.666 33.2206 64.0399 30.4206 62.7691 29.4944C62.6937 29.4406 62.6291 29.3975 62.5537 29.3544C62.3067 29.2103 62.1263 28.9747 62.0517 28.6985C61.9772 28.4224 62.0144 28.128 62.1553 27.8791C62.446 27.3621 63.103 27.1898 63.6307 27.4806C63.8137 27.5883 63.986 27.7067 64.1691 27.8575C66.4199 29.6344 68.5091 34.1791 68.7568 34.7283C68.886 35.0191 68.8753 35.3529 68.746 35.6329Z" fill="#D80005"/>
<path d="M63.803 37.593V61.2422C63.803 61.8453 63.3184 62.3191 62.726 62.3191H54.8753C54.283 62.3191 53.7984 61.8453 53.7984 61.2422V46.3699H49.1353V61.2422C49.1353 61.8453 48.6507 62.3191 48.0584 62.3191H22.363C21.7707 62.3191 21.286 61.8453 21.286 61.2422V36.9899C21.286 36.3976 21.7707 35.913 22.363 35.913C22.966 35.913 23.4399 36.3976 23.4399 36.9899V60.1653H46.9814V45.293C46.9814 44.7007 47.466 44.216 48.0584 44.216H54.8753C55.4784 44.216 55.9522 44.7007 55.9522 45.293V60.1653H61.6491V37.593C61.6491 37.0007 62.1337 36.516 62.726 36.516C63.3184 36.516 63.803 37.0007 63.803 37.593ZM63.0922 20.4053H21.6199C21.0276 20.4053 20.543 20.8899 20.543 21.4822V28.4176C20.543 28.5145 20.5537 28.6114 20.586 28.6976C20.7045 29.1607 21.1245 29.4945 21.6199 29.4945H63.0922C63.6845 29.4945 64.1691 29.0099 64.1691 28.4176V21.4822C64.1691 20.8899 63.6845 20.4053 63.0922 20.4053ZM62.0153 27.3407H22.6968V22.5591H62.0153V27.3407Z" fill="#D80005"/>
<path d="M66.5706 35.1483C66.1183 35.9668 65.4721 36.796 64.6967 36.8499C63.4475 36.9252 61.9829 35.1914 61.5737 34.5775C61.369 34.276 61.0352 34.0929 60.669 34.0929H60.6583C60.4754 34.0924 60.2957 34.1398 60.1369 34.2306C59.9782 34.3213 59.846 34.4521 59.7536 34.6099C59.086 35.6868 58.0737 36.9791 56.9967 36.9791H56.9644C55.8013 36.9468 54.7136 35.3852 54.4336 34.8468C54.343 34.6764 54.2081 34.5336 54.0433 34.4331C53.8785 34.3327 53.6897 34.2785 53.4967 34.276C53.1198 34.2652 52.7321 34.4806 52.5383 34.8252C52.2367 35.3529 51.8706 35.9237 51.4398 36.376C51.009 36.8175 50.5244 37.1299 50.0183 37.1299C48.8013 37.1191 47.5629 35.3637 47.229 34.7499C47.046 34.4052 46.6906 34.1899 46.3029 34.1791C45.9152 34.2114 45.549 34.3837 45.3552 34.7175C44.5583 36.0852 43.729 36.7852 42.8675 36.8175H42.8136C41.4783 36.8175 40.1213 35.2668 39.7013 34.6529C39.486 34.3406 39.1306 34.1683 38.7321 34.1899C38.3552 34.2114 38.0106 34.4375 37.849 34.7822C37.3106 35.8806 36.4598 37.1837 35.4475 37.2268H35.4044C34.1336 37.2268 32.7444 35.3745 32.3567 34.7175C32.1521 34.3622 31.8075 34.1683 31.366 34.1899C30.9675 34.2114 30.6121 34.4483 30.4506 34.8145C29.966 35.8914 29.1798 37.1837 28.1783 37.2699C26.8644 37.3775 25.2921 35.5145 24.8506 34.8468C24.7714 34.7239 24.6672 34.619 24.5447 34.5392C24.4222 34.4594 24.2842 34.4064 24.1398 34.3837C23.849 34.3299 23.5475 34.4052 23.3106 34.5775C20.3598 36.796 19.5736 36.376 19.5736 36.3652C19.2398 36.1391 19.2183 34.7391 19.5198 33.4683L22.6967 29.4945H62.769C64.0398 30.4206 65.666 33.2206 66.5706 35.1483ZM22.6967 22.5591H62.0152V27.3406H22.6967V22.5591Z" fill="white"/>
<path d="M41.8983 43.5806H28.6306C28.0276 43.5806 27.5537 44.0652 27.5537 44.6575V55.4267C27.5537 56.019 28.0276 56.5036 28.6306 56.5036H41.8983C42.4906 56.5036 42.9753 56.019 42.9753 55.4267V44.6575C42.9753 44.0652 42.4906 43.5806 41.8983 43.5806ZM40.8214 54.3498H29.7076V45.7344H40.8214V54.3498Z" fill="#D80005"/>
<path d="M60.7337 36.9576C59.5383 38.4438 58.246 39.1976 56.889 39.133C55.4029 39.0791 54.2506 38.1314 53.5075 37.2699C52.4521 38.6053 51.2891 39.2838 50.0291 39.2838H49.9967C48.3706 39.273 47.0891 38.1314 46.2814 37.1514C45.2906 38.3145 44.1706 38.9284 42.9429 38.9714C41.2414 39.0145 39.8737 38.013 38.9798 37.1191C37.9783 38.573 36.826 39.3268 35.5337 39.3807C33.8321 39.4668 32.4537 38.2714 31.5598 37.2484C30.6552 38.5945 29.5783 39.3161 28.3398 39.413C28.2429 39.4238 28.1567 39.4238 28.0598 39.4238C26.186 39.4238 24.6029 37.9376 23.7414 36.9253C23.6444 36.9899 23.5475 37.0653 23.4398 37.1191V60.1653H46.9814V45.293C46.9814 44.7007 47.466 44.2161 48.0583 44.2161H54.8752C55.4783 44.2161 55.9521 44.7007 55.9521 45.293V60.1653H61.6491V37.8191C61.3044 37.5391 60.9921 37.2376 60.7337 36.9576ZM42.9752 55.4268C42.9752 56.0191 42.4906 56.5038 41.8983 56.5038H28.6306C28.0275 56.5038 27.5537 56.0191 27.5537 55.4268V44.6576C27.5537 44.0653 28.0275 43.5807 28.6306 43.5807H41.8983C42.4906 43.5807 42.9752 44.0653 42.9752 44.6576V55.4268Z" fill="#FBE6E6"/>
<path d="M29.7075 45.7344H40.8214V54.3498H29.7075V45.7344Z" fill="white"/>
<path d="M18.2329 65.595C17.9473 65.595 17.6734 65.4815 17.4714 65.2795C17.2695 65.0776 17.156 64.8037 17.156 64.518V61.2464C17.156 60.9607 17.2695 60.6868 17.4714 60.4849C17.6734 60.2829 17.9473 60.1694 18.2329 60.1694H22.3683C22.6539 60.1694 22.9279 60.2829 23.1298 60.4849C23.3318 60.6868 23.4452 60.9607 23.4452 61.2464C23.4452 61.532 23.3318 61.8059 23.1298 62.0079C22.9279 62.2098 22.6539 62.3233 22.3683 62.3233H19.3099V64.518C19.3099 64.8037 19.1964 65.0776 18.9944 65.2795C18.7925 65.4815 18.5185 65.595 18.2329 65.595ZM66.7117 65.595C66.4261 65.595 66.1522 65.4815 65.9502 65.2795C65.7482 65.0776 65.6348 64.8037 65.6348 64.518V62.3233H62.7271C62.4415 62.3233 62.1675 62.2098 61.9656 62.0079C61.7636 61.8059 61.6502 61.532 61.6502 61.2464C61.6502 60.9607 61.7636 60.6868 61.9656 60.4849C62.1675 60.2829 62.4415 60.1694 62.7271 60.1694H66.7117C66.9973 60.1694 67.2712 60.2829 67.4732 60.4849C67.6752 60.6868 67.7886 60.9607 67.7886 61.2464V64.518C67.7886 64.8037 67.6752 65.0776 67.4732 65.2795C67.2712 65.4815 66.9973 65.595 66.7117 65.595Z" fill="#D80005"/>
</g>
<defs>
<clipPath id="clip0_1194_2535">
<rect width="86" height="86" fill="white"/>
</clipPath>
</defs>
</svg>
