<svg width="32" height="32" viewBox="0 0 32 32" fill="none" xmlns="http://www.w3.org/2000/svg">
<path d="M30.0001 8.98668C30.0001 8.96668 29.9934 8.94668 29.9867 8.92001C29.9801 8.90001 29.9801 8.87334 29.9667 8.85334V8.84668L27.3001 3.51334C27.2401 3.40668 27.1267 3.33334 27.0001 3.33334H5.66675C5.54008 3.33334 5.42675 3.40668 5.36675 3.52001L2.70008 8.85334V8.86001C2.69341 8.88001 2.68675 8.90001 2.68008 8.92668C2.67341 8.94668 2.66675 8.96668 2.66675 8.99334C2.66675 9.00001 2.66675 9.00001 2.66675 9.00668V27.6733C2.66675 27.86 2.81341 28.0067 3.00008 28.0067H29.6667C29.8534 28.0067 30.0001 27.86 30.0001 27.6733V9.00001C30.0001 8.99334 30.0001 8.99334 30.0001 8.98668ZM5.87342 4.00001H26.7934L29.1267 8.66668H27.0001H21.6667H3.54008L5.87342 4.00001ZM26.6667 9.33334V15.1267L24.4801 14.0333C24.4334 14.0067 24.3801 14 24.3334 14C24.2867 14 24.2334 14.0133 24.1867 14.0333L22.0001 15.1267V9.33334H26.6667ZM29.3334 27.3333H3.33341V9.33334H21.3334V15.6667C21.3334 15.78 21.3934 15.8867 21.4934 15.9533C21.5934 16.0133 21.7134 16.02 21.8201 15.9667L24.3334 14.7067L26.8534 15.9667C26.9001 15.9933 26.9534 16 27.0001 16C27.0601 16 27.1201 15.9867 27.1734 15.9533C27.2734 15.8933 27.3334 15.7867 27.3334 15.6667V9.33334H29.3334V27.3333Z" fill="#D80005" stroke="#D80005" stroke-width="0.6"/>
</svg>
