<svg width="50" height="50" viewBox="0 0 50 50" fill="none" xmlns="http://www.w3.org/2000/svg">
<g clip-path="url(#clip0_245_900)">
<path d="M25 50C38.8075 50 50 38.8075 50 25C50 11.1925 38.8075 0 25 0C11.1925 0 0 11.1925 0 25C0 38.8075 11.1925 50 25 50Z" fill="#E7E7E7" stroke="black" stroke-linecap="round" stroke-linejoin="round"/>
<path d="M10.5414 40.6732C10.1505 41.722 9.95093 42.8324 9.95215 43.9516V48.8164C9.95327 49.6605 10.2891 50.4697 10.886 51.0665C11.483 51.6633 12.2922 51.9991 13.1364 52H36.864C37.7081 51.9991 38.5173 51.6633 39.1143 51.0665C39.7112 50.4697 40.047 49.6605 40.0482 48.8164V43.9612C40.0482 43.6492 40.0326 43.333 40.0014 43.0204C39.7362 40.3534 38.2608 37.9708 35.9538 36.484C34.4346 35.5005 32.6653 34.9731 30.8556 34.9642C30.7314 34.7884 30.4914 34.2646 30.5358 33.0022C30.684 32.824 30.8304 32.6338 30.975 32.431H32.8842C33.2292 32.431 33.558 32.2822 33.786 32.023C36.6522 28.759 36.4578 23.668 36.0864 20.923C36.0378 20.563 35.9994 20.203 35.9604 19.843C35.9269 19.5152 35.8897 19.1878 35.8488 18.8608C35.2038 13.81 30.5364 10 24.9912 10C19.4472 10 14.7792 13.8094 14.1336 18.8614C14.0934 19.187 14.0564 19.513 14.0226 19.8394C13.9842 20.2012 13.9458 20.5624 13.8972 20.923C13.5252 23.6674 13.3302 28.7584 16.197 32.023C16.425 32.2822 16.7538 32.431 17.0988 32.431H19.0158C19.2353 32.7391 19.4738 33.0333 19.7298 33.3118C19.7286 34.2334 19.5666 34.6894 19.4574 34.8874C15.5628 34.7494 11.9154 36.9904 10.5414 40.6732ZM17.7144 30.031H17.6742C15.7116 27.3382 16.0332 23.035 16.2756 21.2446C16.3272 20.8612 16.368 20.4778 16.4094 20.0938C16.4418 19.7842 16.4748 19.4746 16.5138 19.165C17.0082 15.3082 20.652 12.4 24.9918 12.4C29.3316 12.4 32.976 15.3082 33.4686 19.1656C33.5082 19.4758 33.5412 19.7866 33.5742 20.0968C33.615 20.4796 33.6564 20.863 33.708 21.2452C33.9498 23.035 34.2708 27.3388 32.3088 30.031H32.286C32.982 28.351 33.3378 26.4634 33.3378 24.4132V21.6232C33.3378 20.4808 32.376 18.5128 25.9014 18.16C23.8494 18.1006 22.4538 15.9928 22.4424 15.976C22.2747 15.7129 22.011 15.5256 21.7074 15.4538C21.4038 15.3819 21.0841 15.4313 20.8164 15.5914C20.2404 15.9352 19.6872 16.4002 19.1712 16.975C17.5536 18.7768 16.6626 21.22 16.6626 23.8528V24.4132C16.6626 26.4634 17.019 28.3516 17.7144 30.031ZM19.0626 24.4132V23.8528C19.0626 21.8128 19.7358 19.939 20.9574 18.5782C21.0492 18.475 21.1434 18.3778 21.237 18.2866C22.1232 19.231 23.697 20.497 25.8012 20.5576C28.0728 20.6836 30.4602 21.2338 30.9378 21.7312V24.4132C30.9378 26.1718 30.6378 27.7738 30.0468 29.1748C28.1988 33.5512 25.3338 33.2488 25.1808 33.2296C25.056 33.2105 24.929 33.2113 24.8046 33.232C24.7764 33.2368 21.849 33.6634 19.9536 29.1748C19.3626 27.7738 19.0626 26.1718 19.0626 24.4132ZM28.3878 35.293C28.179 35.3482 27.9696 35.3962 27.7626 35.4658L27.6138 35.5162C27.2958 35.6242 27.0372 35.8612 26.901 36.1684L25.1298 40.1824L23.3592 36.1684C23.2897 36.0114 23.1874 35.8711 23.0592 35.7569C22.931 35.6428 22.7797 35.5574 22.6158 35.5066L21.993 35.3146C21.9528 35.302 21.912 35.2948 21.8718 35.2828C21.8988 35.194 21.9246 35.1028 21.948 35.0056C23.0442 35.536 24.0282 35.6374 24.6198 35.6374C24.7752 35.6374 24.9036 35.6302 25.0002 35.6224C25.4874 35.6614 26.8014 35.6668 28.2798 34.8814C28.3116 35.0278 28.3482 35.1634 28.3878 35.293ZM21.2832 37.606L21.384 37.6372L24.0318 43.6384C24.1258 43.8511 24.2797 44.0319 24.4746 44.1589C24.6695 44.2858 24.8971 44.3534 25.1298 44.3534C25.3624 44.3534 25.59 44.2858 25.7849 44.1589C25.9798 44.0319 26.1337 43.8511 26.2278 43.6384L28.8786 37.6318C29.8482 37.3628 30.8636 37.3012 31.8586 37.4509C32.8537 37.6006 33.806 37.9582 34.6536 38.5006C36.3414 39.589 37.4208 41.323 37.6128 43.2586C37.6368 43.4914 37.6488 43.7278 37.6488 43.9606V48.8158C37.6488 49.2406 37.2888 49.5994 36.864 49.5994H13.1364C12.7038 49.5994 12.3522 49.2478 12.3522 48.8158V43.951C12.3522 43.1122 12.4998 42.2908 12.7902 41.5114C13.7544 38.926 16.3854 37.288 19.1802 37.288C19.8786 37.288 20.5878 37.39 21.2832 37.606Z" fill="black"/>
</g>
<defs>
<clipPath id="clip0_245_900">
<rect width="50" height="50" rx="25" fill="white"/>
</clipPath>
</defs>
</svg>
