<svg width="18" height="18" viewBox="0 0 18 18" fill="none" xmlns="http://www.w3.org/2000/svg">
<path d="M9 15.75C7.66498 15.75 6.35994 15.3541 5.2499 14.6124C4.13987 13.8707 3.27471 12.8165 2.76382 11.5831C2.25292 10.3497 2.11925 8.99252 2.3797 7.68314C2.64015 6.37377 3.28303 5.17104 4.22703 4.22703C5.17104 3.28303 6.37377 2.64015 7.68314 2.3797C8.99252 2.11925 10.3497 2.25292 11.5831 2.76382C12.8165 3.27471 13.8707 4.13987 14.6124 5.2499C15.3541 6.35994 15.75 7.66498 15.75 9C15.75 10.7902 15.0388 12.5071 13.773 13.773C12.5071 15.0388 10.7902 15.75 9 15.75ZM9 3.375C7.88748 3.375 6.79995 3.7049 5.87492 4.32299C4.94989 4.94107 4.22892 5.81957 3.80318 6.84741C3.37744 7.87524 3.26604 9.00624 3.48309 10.0974C3.70013 11.1885 4.23586 12.1908 5.02253 12.9775C5.8092 13.7641 6.81148 14.2999 7.90262 14.5169C8.99376 14.734 10.1248 14.6226 11.1526 14.1968C12.1804 13.7711 13.0589 13.0501 13.677 12.1251C14.2951 11.2001 14.625 10.1125 14.625 9C14.625 7.50816 14.0324 6.07742 12.9775 5.02253C11.9226 3.96764 10.4918 3.375 9 3.375Z" fill="#969696"/>
<path d="M11.8125 9.5625H9C8.85082 9.5625 8.70774 9.50324 8.60225 9.39775C8.49676 9.29226 8.4375 9.14918 8.4375 9V5.0625C8.4375 4.91332 8.49676 4.77024 8.60225 4.66475C8.70774 4.55926 8.85082 4.5 9 4.5C9.14918 4.5 9.29226 4.55926 9.39775 4.66475C9.50324 4.77024 9.5625 4.91332 9.5625 5.0625V8.4375H11.8125C11.9617 8.4375 12.1048 8.49676 12.2102 8.60225C12.3157 8.70774 12.375 8.85082 12.375 9C12.375 9.14918 12.3157 9.29226 12.2102 9.39775C12.1048 9.50324 11.9617 9.5625 11.8125 9.5625Z" fill="#969696"/>
</svg>
