<svg width="18" height="18" viewBox="0 0 18 18" fill="none" xmlns="http://www.w3.org/2000/svg">
<g clip-path="url(#clip0_7_755)">
<path d="M10.5001 0.75H7.50008C7.08757 0.75 6.75008 1.0875 6.75008 1.5C6.75008 1.9125 7.08757 2.25 7.50008 2.25H10.5001C10.9126 2.25 11.2501 1.9125 11.2501 1.5C11.2501 1.0875 10.9126 0.75 10.5001 0.75ZM9.00008 10.5C9.41258 10.5 9.75008 10.1625 9.75008 9.75V6.75C9.75008 6.3375 9.41258 6 9.00008 6C8.58757 6 8.25008 6.3375 8.25008 6.75V9.75C8.25008 10.1625 8.58757 10.5 9.00008 10.5ZM14.2726 5.5425L14.8351 4.98C15.1201 4.695 15.1276 4.2225 14.8351 3.93L14.8276 3.9225C14.5351 3.63 14.0701 3.6375 13.7776 3.9225L13.2151 4.485C12.0526 3.555 10.5901 3 9.00008 3C5.40007 3 2.34008 5.97 2.25008 9.57C2.15258 13.38 5.20508 16.5 9.00008 16.5C12.7351 16.5 15.7501 13.4775 15.7501 9.75C15.7501 8.16 15.1951 6.6975 14.2726 5.5425ZM9.00008 15C6.09758 15 3.75008 12.6525 3.75008 9.75C3.75008 6.8475 6.09758 4.5 9.00008 4.5C11.9026 4.5 14.2501 6.8475 14.2501 9.75C14.2501 12.6525 11.9026 15 9.00008 15Z" fill="#969696"/>
</g>
<defs>
<clipPath id="clip0_7_755">
<rect width="18" height="18" fill="white"/>
</clipPath>
</defs>
</svg>
